{
  "asset": {
    "version": "2.0",
    "generator": "Holesy Imported Building Converter 1.0.0",
    "extras": {
      "packId": "harvest-county-quaternius",
      "modelId": "harvest-windmill",
      "sourceAsset": "Windmill.gltf",
      "sourceSha256": "b5b0e372a5077b3e77aaf9d3fe19ed67c0d7315256d76d44f6795861a4f8e4c4"
    }
  },
  "scene": 0,
  "scenes": [
    {
      "name": "Holesy Destructible Building",
      "nodes": [
        20
      ]
    }
  ],
  "nodes": [
    {
      "name": "block_f0_r0_c0",
      "mesh": 0,
      "translation": [
        -2.5,
        1.8446021748476693,
        -2.5
      ],
      "extras": {
        "holesyBlock": true,
        "floor": 0,
        "row": 0,
        "col": 0,
        "closedFaces": 6,
        "collision": "box",
        "blockWidth": 5,
        "blockHeight": 3.6892043496953386,
        "blockDepth": 5,
        "authenticSurfaceTriangles": 84
      }
    },
    {
      "name": "block_f0_r0_c1",
      "mesh": 1,
      "translation": [
        2.5,
        1.8446021748476693,
        -2.5
      ],
      "extras": {
        "holesyBlock": true,
        "floor": 0,
        "row": 0,
        "col": 1,
        "closedFaces": 6,
        "collision": "box",
        "blockWidth": 5,
        "blockHeight": 3.6892043496953386,
        "blockDepth": 5,
        "authenticSurfaceTriangles": 0
      }
    },
    {
      "name": "block_f0_r1_c0",
      "mesh": 2,
      "translation": [
        -2.5,
        1.8446021748476693,
        2.5
      ],
      "extras": {
        "holesyBlock": true,
        "floor": 0,
        "row": 1,
        "col": 0,
        "closedFaces": 6,
        "collision": "box",
        "blockWidth": 5,
        "blockHeight": 3.6892043496953386,
        "blockDepth": 5,
        "authenticSurfaceTriangles": 84
      }
    },
    {
      "name": "block_f0_r1_c1",
      "mesh": 3,
      "translation": [
        2.5,
        1.8446021748476693,
        2.5
      ],
      "extras": {
        "holesyBlock": true,
        "floor": 0,
        "row": 1,
        "col": 1,
        "closedFaces": 6,
        "collision": "box",
        "blockWidth": 5,
        "blockHeight": 3.6892043496953386,
        "blockDepth": 5,
        "authenticSurfaceTriangles": 0
      }
    },
    {
      "name": "block_f1_r0_c0",
      "mesh": 4,
      "translation": [
        -2.5,
        5.533806524543008,
        -2.5
      ],
      "extras": {
        "holesyBlock": true,
        "floor": 1,
        "row": 0,
        "col": 0,
        "closedFaces": 6,
        "collision": "box",
        "blockWidth": 5,
        "blockHeight": 3.6892043496953386,
        "blockDepth": 5,
        "authenticSurfaceTriangles": 144
      }
    },
    {
      "name": "block_f1_r0_c1",
      "mesh": 5,
      "translation": [
        2.5,
        5.533806524543008,
        -2.5
      ],
      "extras": {
        "holesyBlock": true,
        "floor": 1,
        "row": 0,
        "col": 1,
        "closedFaces": 6,
        "collision": "box",
        "blockWidth": 5,
        "blockHeight": 3.6892043496953386,
        "blockDepth": 5,
        "authenticSurfaceTriangles": 0
      }
    },
    {
      "name": "block_f1_r1_c0",
      "mesh": 6,
      "translation": [
        -2.5,
        5.533806524543008,
        2.5
      ],
      "extras": {
        "holesyBlock": true,
        "floor": 1,
        "row": 1,
        "col": 0,
        "closedFaces": 6,
        "collision": "box",
        "blockWidth": 5,
        "blockHeight": 3.6892043496953386,
        "blockDepth": 5,
        "authenticSurfaceTriangles": 144
      }
    },
    {
      "name": "block_f1_r1_c1",
      "mesh": 7,
      "translation": [
        2.5,
        5.533806524543008,
        2.5
      ],
      "extras": {
        "holesyBlock": true,
        "floor": 1,
        "row": 1,
        "col": 1,
        "closedFaces": 6,
        "collision": "box",
        "blockWidth": 5,
        "blockHeight": 3.6892043496953386,
        "blockDepth": 5,
        "authenticSurfaceTriangles": 0
      }
    },
    {
      "name": "block_f2_r0_c0",
      "mesh": 8,
      "translation": [
        -2.5,
        9.223010874238346,
        -2.5
      ],
      "extras": {
        "holesyBlock": true,
        "floor": 2,
        "row": 0,
        "col": 0,
        "closedFaces": 6,
        "collision": "box",
        "blockWidth": 5,
        "blockHeight": 3.6892043496953386,
        "blockDepth": 5,
        "authenticSurfaceTriangles": 144
      }
    },
    {
      "name": "block_f2_r0_c1",
      "mesh": 9,
      "translation": [
        2.5,
        9.223010874238346,
        -2.5
      ],
      "extras": {
        "holesyBlock": true,
        "floor": 2,
        "row": 0,
        "col": 1,
        "closedFaces": 6,
        "collision": "box",
        "blockWidth": 5,
        "blockHeight": 3.6892043496953386,
        "blockDepth": 5,
        "authenticSurfaceTriangles": 0
      }
    },
    {
      "name": "block_f2_r1_c0",
      "mesh": 10,
      "translation": [
        -2.5,
        9.223010874238346,
        2.5
      ],
      "extras": {
        "holesyBlock": true,
        "floor": 2,
        "row": 1,
        "col": 0,
        "closedFaces": 6,
        "collision": "box",
        "blockWidth": 5,
        "blockHeight": 3.6892043496953386,
        "blockDepth": 5,
        "authenticSurfaceTriangles": 144
      }
    },
    {
      "name": "block_f2_r1_c1",
      "mesh": 11,
      "translation": [
        2.5,
        9.223010874238346,
        2.5
      ],
      "extras": {
        "holesyBlock": true,
        "floor": 2,
        "row": 1,
        "col": 1,
        "closedFaces": 6,
        "collision": "box",
        "blockWidth": 5,
        "blockHeight": 3.6892043496953386,
        "blockDepth": 5,
        "authenticSurfaceTriangles": 0
      }
    },
    {
      "name": "block_f3_r0_c0",
      "mesh": 12,
      "translation": [
        -2.5,
        12.912215223933686,
        -2.5
      ],
      "extras": {
        "holesyBlock": true,
        "floor": 3,
        "row": 0,
        "col": 0,
        "closedFaces": 6,
        "collision": "box",
        "blockWidth": 5,
        "blockHeight": 3.6892043496953386,
        "blockDepth": 5,
        "authenticSurfaceTriangles": 116
      }
    },
    {
      "name": "block_f3_r0_c1",
      "mesh": 13,
      "translation": [
        2.5,
        12.912215223933686,
        -2.5
      ],
      "extras": {
        "holesyBlock": true,
        "floor": 3,
        "row": 0,
        "col": 1,
        "closedFaces": 6,
        "collision": "box",
        "blockWidth": 5,
        "blockHeight": 3.6892043496953386,
        "blockDepth": 5,
        "authenticSurfaceTriangles": 0
      }
    },
    {
      "name": "block_f3_r1_c0",
      "mesh": 14,
      "translation": [
        -2.5,
        12.912215223933686,
        2.5
      ],
      "extras": {
        "holesyBlock": true,
        "floor": 3,
        "row": 1,
        "col": 0,
        "closedFaces": 6,
        "collision": "box",
        "blockWidth": 5,
        "blockHeight": 3.6892043496953386,
        "blockDepth": 5,
        "authenticSurfaceTriangles": 111
      }
    },
    {
      "name": "block_f3_r1_c1",
      "mesh": 15,
      "translation": [
        2.5,
        12.912215223933686,
        2.5
      ],
      "extras": {
        "holesyBlock": true,
        "floor": 3,
        "row": 1,
        "col": 1,
        "closedFaces": 6,
        "collision": "box",
        "blockWidth": 5,
        "blockHeight": 3.6892043496953386,
        "blockDepth": 5,
        "authenticSurfaceTriangles": 0
      }
    },
    {
      "name": "block_f4_r0_c0",
      "mesh": 16,
      "translation": [
        -2.5,
        16.601419573629023,
        -2.5
      ],
      "extras": {
        "holesyBlock": true,
        "floor": 4,
        "row": 0,
        "col": 0,
        "closedFaces": 6,
        "collision": "box",
        "blockWidth": 5,
        "blockHeight": 3.6892043496953386,
        "blockDepth": 5,
        "authenticSurfaceTriangles": 91
      }
    },
    {
      "name": "block_f4_r0_c1",
      "mesh": 17,
      "translation": [
        2.5,
        16.601419573629023,
        -2.5
      ],
      "extras": {
        "holesyBlock": true,
        "floor": 4,
        "row": 0,
        "col": 1,
        "closedFaces": 6,
        "collision": "box",
        "blockWidth": 5,
        "blockHeight": 3.6892043496953386,
        "blockDepth": 5,
        "authenticSurfaceTriangles": 51
      }
    },
    {
      "name": "block_f4_r1_c0",
      "mesh": 18,
      "translation": [
        -2.5,
        16.601419573629023,
        2.5
      ],
      "extras": {
        "holesyBlock": true,
        "floor": 4,
        "row": 1,
        "col": 0,
        "closedFaces": 6,
        "collision": "box",
        "blockWidth": 5,
        "blockHeight": 3.6892043496953386,
        "blockDepth": 5,
        "authenticSurfaceTriangles": 88
      }
    },
    {
      "name": "block_f4_r1_c1",
      "mesh": 19,
      "translation": [
        2.5,
        16.601419573629023,
        2.5
      ],
      "extras": {
        "holesyBlock": true,
        "floor": 4,
        "row": 1,
        "col": 1,
        "closedFaces": 6,
        "collision": "box",
        "blockWidth": 5,
        "blockHeight": 3.6892043496953386,
        "blockDepth": 5,
        "authenticSurfaceTriangles": 51
      }
    },
    {
      "name": "harvest-windmill_destructible",
      "children": [
        0,
        1,
        2,
        3,
        4,
        5,
        6,
        7,
        8,
        9,
        10,
        11,
        12,
        13,
        14,
        15,
        16,
        17,
        18,
        19
      ],
      "extras": {
        "holesyDestructible": true,
        "recipeVersion": "1.0.0"
      }
    }
  ],
  "meshes": [
    {
      "name": "solid_block_mesh_0",
      "primitives": [
        {
          "extras": {
            "holesyCoreSurface": true,
            "holesySurfaceGroup": "facade"
          },
          "attributes": {
            "POSITION": 0,
            "NORMAL": 1,
            "TEXCOORD_0": 2
          },
          "indices": 3,
          "material": 0,
          "mode": 4
        },
        {
          "extras": {
            "holesyCoreSurface": true,
            "holesySurfaceGroup": "interior"
          },
          "attributes": {
            "POSITION": 4,
            "NORMAL": 5,
            "TEXCOORD_0": 6
          },
          "indices": 7,
          "material": 0,
          "mode": 4
        },
        {
          "extras": {
            "holesyAuthenticSurface": true
          },
          "attributes": {
            "POSITION": 8,
            "NORMAL": 9,
            "TEXCOORD_0": 10
          },
          "indices": 11,
          "material": 0,
          "mode": 4
        }
      ]
    },
    {
      "name": "solid_block_mesh_1",
      "primitives": [
        {
          "extras": {
            "holesyCoreSurface": true,
            "holesySurfaceGroup": "facade"
          },
          "attributes": {
            "POSITION": 12,
            "NORMAL": 13,
            "TEXCOORD_0": 14
          },
          "indices": 15,
          "material": 0,
          "mode": 4
        },
        {
          "extras": {
            "holesyCoreSurface": true,
            "holesySurfaceGroup": "interior"
          },
          "attributes": {
            "POSITION": 16,
            "NORMAL": 17,
            "TEXCOORD_0": 18
          },
          "indices": 19,
          "material": 0,
          "mode": 4
        }
      ]
    },
    {
      "name": "solid_block_mesh_2",
      "primitives": [
        {
          "extras": {
            "holesyCoreSurface": true,
            "holesySurfaceGroup": "facade"
          },
          "attributes": {
            "POSITION": 20,
            "NORMAL": 21,
            "TEXCOORD_0": 22
          },
          "indices": 23,
          "material": 0,
          "mode": 4
        },
        {
          "extras": {
            "holesyCoreSurface": true,
            "holesySurfaceGroup": "interior"
          },
          "attributes": {
            "POSITION": 24,
            "NORMAL": 25,
            "TEXCOORD_0": 26
          },
          "indices": 27,
          "material": 0,
          "mode": 4
        },
        {
          "extras": {
            "holesyAuthenticSurface": true
          },
          "attributes": {
            "POSITION": 28,
            "NORMAL": 29,
            "TEXCOORD_0": 30
          },
          "indices": 31,
          "material": 0,
          "mode": 4
        }
      ]
    },
    {
      "name": "solid_block_mesh_3",
      "primitives": [
        {
          "extras": {
            "holesyCoreSurface": true,
            "holesySurfaceGroup": "facade"
          },
          "attributes": {
            "POSITION": 32,
            "NORMAL": 33,
            "TEXCOORD_0": 34
          },
          "indices": 35,
          "material": 0,
          "mode": 4
        },
        {
          "extras": {
            "holesyCoreSurface": true,
            "holesySurfaceGroup": "interior"
          },
          "attributes": {
            "POSITION": 36,
            "NORMAL": 37,
            "TEXCOORD_0": 38
          },
          "indices": 39,
          "material": 0,
          "mode": 4
        }
      ]
    },
    {
      "name": "solid_block_mesh_4",
      "primitives": [
        {
          "extras": {
            "holesyCoreSurface": true,
            "holesySurfaceGroup": "facade"
          },
          "attributes": {
            "POSITION": 40,
            "NORMAL": 41,
            "TEXCOORD_0": 42
          },
          "indices": 43,
          "material": 0,
          "mode": 4
        },
        {
          "extras": {
            "holesyCoreSurface": true,
            "holesySurfaceGroup": "interior"
          },
          "attributes": {
            "POSITION": 44,
            "NORMAL": 45,
            "TEXCOORD_0": 46
          },
          "indices": 47,
          "material": 0,
          "mode": 4
        },
        {
          "extras": {
            "holesyAuthenticSurface": true
          },
          "attributes": {
            "POSITION": 48,
            "NORMAL": 49,
            "TEXCOORD_0": 50
          },
          "indices": 51,
          "material": 0,
          "mode": 4
        }
      ]
    },
    {
      "name": "solid_block_mesh_5",
      "primitives": [
        {
          "extras": {
            "holesyCoreSurface": true,
            "holesySurfaceGroup": "facade"
          },
          "attributes": {
            "POSITION": 52,
            "NORMAL": 53,
            "TEXCOORD_0": 54
          },
          "indices": 55,
          "material": 0,
          "mode": 4
        },
        {
          "extras": {
            "holesyCoreSurface": true,
            "holesySurfaceGroup": "interior"
          },
          "attributes": {
            "POSITION": 56,
            "NORMAL": 57,
            "TEXCOORD_0": 58
          },
          "indices": 59,
          "material": 0,
          "mode": 4
        }
      ]
    },
    {
      "name": "solid_block_mesh_6",
      "primitives": [
        {
          "extras": {
            "holesyCoreSurface": true,
            "holesySurfaceGroup": "facade"
          },
          "attributes": {
            "POSITION": 60,
            "NORMAL": 61,
            "TEXCOORD_0": 62
          },
          "indices": 63,
          "material": 0,
          "mode": 4
        },
        {
          "extras": {
            "holesyCoreSurface": true,
            "holesySurfaceGroup": "interior"
          },
          "attributes": {
            "POSITION": 64,
            "NORMAL": 65,
            "TEXCOORD_0": 66
          },
          "indices": 67,
          "material": 0,
          "mode": 4
        },
        {
          "extras": {
            "holesyAuthenticSurface": true
          },
          "attributes": {
            "POSITION": 68,
            "NORMAL": 69,
            "TEXCOORD_0": 70
          },
          "indices": 71,
          "material": 0,
          "mode": 4
        }
      ]
    },
    {
      "name": "solid_block_mesh_7",
      "primitives": [
        {
          "extras": {
            "holesyCoreSurface": true,
            "holesySurfaceGroup": "facade"
          },
          "attributes": {
            "POSITION": 72,
            "NORMAL": 73,
            "TEXCOORD_0": 74
          },
          "indices": 75,
          "material": 0,
          "mode": 4
        },
        {
          "extras": {
            "holesyCoreSurface": true,
            "holesySurfaceGroup": "interior"
          },
          "attributes": {
            "POSITION": 76,
            "NORMAL": 77,
            "TEXCOORD_0": 78
          },
          "indices": 79,
          "material": 0,
          "mode": 4
        }
      ]
    },
    {
      "name": "solid_block_mesh_8",
      "primitives": [
        {
          "extras": {
            "holesyCoreSurface": true,
            "holesySurfaceGroup": "facade"
          },
          "attributes": {
            "POSITION": 80,
            "NORMAL": 81,
            "TEXCOORD_0": 82
          },
          "indices": 83,
          "material": 0,
          "mode": 4
        },
        {
          "extras": {
            "holesyCoreSurface": true,
            "holesySurfaceGroup": "interior"
          },
          "attributes": {
            "POSITION": 84,
            "NORMAL": 85,
            "TEXCOORD_0": 86
          },
          "indices": 87,
          "material": 0,
          "mode": 4
        },
        {
          "extras": {
            "holesyAuthenticSurface": true
          },
          "attributes": {
            "POSITION": 88,
            "NORMAL": 89,
            "TEXCOORD_0": 90
          },
          "indices": 91,
          "material": 0,
          "mode": 4
        }
      ]
    },
    {
      "name": "solid_block_mesh_9",
      "primitives": [
        {
          "extras": {
            "holesyCoreSurface": true,
            "holesySurfaceGroup": "facade"
          },
          "attributes": {
            "POSITION": 92,
            "NORMAL": 93,
            "TEXCOORD_0": 94
          },
          "indices": 95,
          "material": 0,
          "mode": 4
        },
        {
          "extras": {
            "holesyCoreSurface": true,
            "holesySurfaceGroup": "interior"
          },
          "attributes": {
            "POSITION": 96,
            "NORMAL": 97,
            "TEXCOORD_0": 98
          },
          "indices": 99,
          "material": 0,
          "mode": 4
        }
      ]
    },
    {
      "name": "solid_block_mesh_10",
      "primitives": [
        {
          "extras": {
            "holesyCoreSurface": true,
            "holesySurfaceGroup": "facade"
          },
          "attributes": {
            "POSITION": 100,
            "NORMAL": 101,
            "TEXCOORD_0": 102
          },
          "indices": 103,
          "material": 0,
          "mode": 4
        },
        {
          "extras": {
            "holesyCoreSurface": true,
            "holesySurfaceGroup": "interior"
          },
          "attributes": {
            "POSITION": 104,
            "NORMAL": 105,
            "TEXCOORD_0": 106
          },
          "indices": 107,
          "material": 0,
          "mode": 4
        },
        {
          "extras": {
            "holesyAuthenticSurface": true
          },
          "attributes": {
            "POSITION": 108,
            "NORMAL": 109,
            "TEXCOORD_0": 110
          },
          "indices": 111,
          "material": 0,
          "mode": 4
        }
      ]
    },
    {
      "name": "solid_block_mesh_11",
      "primitives": [
        {
          "extras": {
            "holesyCoreSurface": true,
            "holesySurfaceGroup": "facade"
          },
          "attributes": {
            "POSITION": 112,
            "NORMAL": 113,
            "TEXCOORD_0": 114
          },
          "indices": 115,
          "material": 0,
          "mode": 4
        },
        {
          "extras": {
            "holesyCoreSurface": true,
            "holesySurfaceGroup": "interior"
          },
          "attributes": {
            "POSITION": 116,
            "NORMAL": 117,
            "TEXCOORD_0": 118
          },
          "indices": 119,
          "material": 0,
          "mode": 4
        }
      ]
    },
    {
      "name": "solid_block_mesh_12",
      "primitives": [
        {
          "extras": {
            "holesyCoreSurface": true,
            "holesySurfaceGroup": "facade"
          },
          "attributes": {
            "POSITION": 120,
            "NORMAL": 121,
            "TEXCOORD_0": 122
          },
          "indices": 123,
          "material": 0,
          "mode": 4
        },
        {
          "extras": {
            "holesyCoreSurface": true,
            "holesySurfaceGroup": "interior"
          },
          "attributes": {
            "POSITION": 124,
            "NORMAL": 125,
            "TEXCOORD_0": 126
          },
          "indices": 127,
          "material": 0,
          "mode": 4
        },
        {
          "extras": {
            "holesyAuthenticSurface": true
          },
          "attributes": {
            "POSITION": 128,
            "NORMAL": 129,
            "TEXCOORD_0": 130
          },
          "indices": 131,
          "material": 0,
          "mode": 4
        }
      ]
    },
    {
      "name": "solid_block_mesh_13",
      "primitives": [
        {
          "extras": {
            "holesyCoreSurface": true,
            "holesySurfaceGroup": "facade"
          },
          "attributes": {
            "POSITION": 132,
            "NORMAL": 133,
            "TEXCOORD_0": 134
          },
          "indices": 135,
          "material": 0,
          "mode": 4
        },
        {
          "extras": {
            "holesyCoreSurface": true,
            "holesySurfaceGroup": "interior"
          },
          "attributes": {
            "POSITION": 136,
            "NORMAL": 137,
            "TEXCOORD_0": 138
          },
          "indices": 139,
          "material": 0,
          "mode": 4
        }
      ]
    },
    {
      "name": "solid_block_mesh_14",
      "primitives": [
        {
          "extras": {
            "holesyCoreSurface": true,
            "holesySurfaceGroup": "facade"
          },
          "attributes": {
            "POSITION": 140,
            "NORMAL": 141,
            "TEXCOORD_0": 142
          },
          "indices": 143,
          "material": 0,
          "mode": 4
        },
        {
          "extras": {
            "holesyCoreSurface": true,
            "holesySurfaceGroup": "interior"
          },
          "attributes": {
            "POSITION": 144,
            "NORMAL": 145,
            "TEXCOORD_0": 146
          },
          "indices": 147,
          "material": 0,
          "mode": 4
        },
        {
          "extras": {
            "holesyAuthenticSurface": true
          },
          "attributes": {
            "POSITION": 148,
            "NORMAL": 149,
            "TEXCOORD_0": 150
          },
          "indices": 151,
          "material": 0,
          "mode": 4
        }
      ]
    },
    {
      "name": "solid_block_mesh_15",
      "primitives": [
        {
          "extras": {
            "holesyCoreSurface": true,
            "holesySurfaceGroup": "facade"
          },
          "attributes": {
            "POSITION": 152,
            "NORMAL": 153,
            "TEXCOORD_0": 154
          },
          "indices": 155,
          "material": 0,
          "mode": 4
        },
        {
          "extras": {
            "holesyCoreSurface": true,
            "holesySurfaceGroup": "interior"
          },
          "attributes": {
            "POSITION": 156,
            "NORMAL": 157,
            "TEXCOORD_0": 158
          },
          "indices": 159,
          "material": 0,
          "mode": 4
        }
      ]
    },
    {
      "name": "solid_block_mesh_16",
      "primitives": [
        {
          "extras": {
            "holesyCoreSurface": true,
            "holesySurfaceGroup": "facade"
          },
          "attributes": {
            "POSITION": 160,
            "NORMAL": 161,
            "TEXCOORD_0": 162
          },
          "indices": 163,
          "material": 0,
          "mode": 4
        },
        {
          "extras": {
            "holesyCoreSurface": true,
            "holesySurfaceGroup": "roof"
          },
          "attributes": {
            "POSITION": 164,
            "NORMAL": 165,
            "TEXCOORD_0": 166
          },
          "indices": 167,
          "material": 0,
          "mode": 4
        },
        {
          "extras": {
            "holesyCoreSurface": true,
            "holesySurfaceGroup": "interior"
          },
          "attributes": {
            "POSITION": 168,
            "NORMAL": 169,
            "TEXCOORD_0": 170
          },
          "indices": 171,
          "material": 0,
          "mode": 4
        },
        {
          "extras": {
            "holesyAuthenticSurface": true
          },
          "attributes": {
            "POSITION": 172,
            "NORMAL": 173,
            "TEXCOORD_0": 174
          },
          "indices": 175,
          "material": 0,
          "mode": 4
        },
        {
          "extras": {
            "holesyAuthenticSurface": true
          },
          "attributes": {
            "POSITION": 176,
            "NORMAL": 177,
            "TEXCOORD_0": 178
          },
          "indices": 179,
          "material": 1,
          "mode": 4
        }
      ]
    },
    {
      "name": "solid_block_mesh_17",
      "primitives": [
        {
          "extras": {
            "holesyCoreSurface": true,
            "holesySurfaceGroup": "facade"
          },
          "attributes": {
            "POSITION": 180,
            "NORMAL": 181,
            "TEXCOORD_0": 182
          },
          "indices": 183,
          "material": 0,
          "mode": 4
        },
        {
          "extras": {
            "holesyCoreSurface": true,
            "holesySurfaceGroup": "roof"
          },
          "attributes": {
            "POSITION": 184,
            "NORMAL": 185,
            "TEXCOORD_0": 186
          },
          "indices": 187,
          "material": 0,
          "mode": 4
        },
        {
          "extras": {
            "holesyCoreSurface": true,
            "holesySurfaceGroup": "interior"
          },
          "attributes": {
            "POSITION": 188,
            "NORMAL": 189,
            "TEXCOORD_0": 190
          },
          "indices": 191,
          "material": 0,
          "mode": 4
        },
        {
          "extras": {
            "holesyAuthenticSurface": true
          },
          "attributes": {
            "POSITION": 192,
            "NORMAL": 193,
            "TEXCOORD_0": 194
          },
          "indices": 195,
          "material": 1,
          "mode": 4
        }
      ]
    },
    {
      "name": "solid_block_mesh_18",
      "primitives": [
        {
          "extras": {
            "holesyCoreSurface": true,
            "holesySurfaceGroup": "facade"
          },
          "attributes": {
            "POSITION": 196,
            "NORMAL": 197,
            "TEXCOORD_0": 198
          },
          "indices": 199,
          "material": 0,
          "mode": 4
        },
        {
          "extras": {
            "holesyCoreSurface": true,
            "holesySurfaceGroup": "roof"
          },
          "attributes": {
            "POSITION": 200,
            "NORMAL": 201,
            "TEXCOORD_0": 202
          },
          "indices": 203,
          "material": 0,
          "mode": 4
        },
        {
          "extras": {
            "holesyCoreSurface": true,
            "holesySurfaceGroup": "interior"
          },
          "attributes": {
            "POSITION": 204,
            "NORMAL": 205,
            "TEXCOORD_0": 206
          },
          "indices": 207,
          "material": 0,
          "mode": 4
        },
        {
          "extras": {
            "holesyAuthenticSurface": true
          },
          "attributes": {
            "POSITION": 208,
            "NORMAL": 209,
            "TEXCOORD_0": 210
          },
          "indices": 211,
          "material": 0,
          "mode": 4
        },
        {
          "extras": {
            "holesyAuthenticSurface": true
          },
          "attributes": {
            "POSITION": 212,
            "NORMAL": 213,
            "TEXCOORD_0": 214
          },
          "indices": 215,
          "material": 1,
          "mode": 4
        }
      ]
    },
    {
      "name": "solid_block_mesh_19",
      "primitives": [
        {
          "extras": {
            "holesyCoreSurface": true,
            "holesySurfaceGroup": "facade"
          },
          "attributes": {
            "POSITION": 216,
            "NORMAL": 217,
            "TEXCOORD_0": 218
          },
          "indices": 219,
          "material": 0,
          "mode": 4
        },
        {
          "extras": {
            "holesyCoreSurface": true,
            "holesySurfaceGroup": "roof"
          },
          "attributes": {
            "POSITION": 220,
            "NORMAL": 221,
            "TEXCOORD_0": 222
          },
          "indices": 223,
          "material": 0,
          "mode": 4
        },
        {
          "extras": {
            "holesyCoreSurface": true,
            "holesySurfaceGroup": "interior"
          },
          "attributes": {
            "POSITION": 224,
            "NORMAL": 225,
            "TEXCOORD_0": 226
          },
          "indices": 227,
          "material": 0,
          "mode": 4
        },
        {
          "extras": {
            "holesyAuthenticSurface": true
          },
          "attributes": {
            "POSITION": 228,
            "NORMAL": 229,
            "TEXCOORD_0": 230
          },
          "indices": 231,
          "material": 1,
          "mode": 4
        }
      ]
    }
  ],
  "materials": [
    {
      "name": "Brown",
      "pbrMetallicRoughness": {
        "baseColorFactor": [
          0.224804,
          0.076709,
          0.037364,
          1
        ],
        "metallicFactor": 0,
        "roughnessFactor": 0.903921569
      },
      "emissiveFactor": [
        0,
        0,
        0
      ],
      "alphaMode": "OPAQUE",
      "doubleSided": true
    },
    {
      "name": "Grey",
      "pbrMetallicRoughness": {
        "baseColorFactor": [
          0.350832,
          0.350832,
          0.350832,
          1
        ],
        "metallicFactor": 0,
        "roughnessFactor": 0.903921569
      },
      "emissiveFactor": [
        0,
        0,
        0
      ],
      "alphaMode": "OPAQUE",
      "doubleSided": true
    }
  ],
  "textures": [],
  "images": [],
  "samplers": [],
  "accessors": [
    {
      "bufferView": 0,
      "componentType": 5126,
      "count": 8,
      "type": "VEC3",
      "min": [
        -2.4,
        -1.7708180878537625,
        -2.4
      ],
      "max": [
        2.4,
        1.7708180878537625,
        2.4
      ]
    },
    {
      "bufferView": 1,
      "componentType": 5126,
      "count": 8,
      "type": "VEC3"
    },
    {
      "bufferView": 2,
      "componentType": 5126,
      "count": 8,
      "type": "VEC2"
    },
    {
      "bufferView": 3,
      "componentType": 5123,
      "count": 12,
      "type": "SCALAR",
      "min": [
        0
      ],
      "max": [
        7
      ]
    },
    {
      "bufferView": 4,
      "componentType": 5126,
      "count": 16,
      "type": "VEC3",
      "min": [
        -2.4,
        -1.7708180878537625,
        -2.4
      ],
      "max": [
        2.4,
        1.7708180878537625,
        2.4
      ]
    },
    {
      "bufferView": 5,
      "componentType": 5126,
      "count": 16,
      "type": "VEC3"
    },
    {
      "bufferView": 6,
      "componentType": 5126,
      "count": 16,
      "type": "VEC2"
    },
    {
      "bufferView": 7,
      "componentType": 5123,
      "count": 24,
      "type": "SCALAR",
      "min": [
        0
      ],
      "max": [
        15
      ]
    },
    {
      "bufferView": 8,
      "componentType": 5126,
      "count": 252,
      "type": "VEC3",
      "min": [
        -2.5,
        -1.8446021748476693,
        0.6990865534445418
      ],
      "max": [
        1.3745359946018985,
        1.8446021748476693,
        2.5
      ]
    },
    {
      "bufferView": 9,
      "componentType": 5126,
      "count": 252,
      "type": "VEC3"
    },
    {
      "bufferView": 10,
      "componentType": 5126,
      "count": 252,
      "type": "VEC2"
    },
    {
      "bufferView": 11,
      "componentType": 5123,
      "count": 252,
      "type": "SCALAR",
      "min": [
        0
      ],
      "max": [
        251
      ]
    },
    {
      "bufferView": 12,
      "componentType": 5126,
      "count": 8,
      "type": "VEC3",
      "min": [
        -2.4,
        -1.7708180878537625,
        -2.4
      ],
      "max": [
        2.4,
        1.7708180878537625,
        2.4
      ]
    },
    {
      "bufferView": 13,
      "componentType": 5126,
      "count": 8,
      "type": "VEC3"
    },
    {
      "bufferView": 14,
      "componentType": 5126,
      "count": 8,
      "type": "VEC2"
    },
    {
      "bufferView": 15,
      "componentType": 5123,
      "count": 12,
      "type": "SCALAR",
      "min": [
        0
      ],
      "max": [
        7
      ]
    },
    {
      "bufferView": 16,
      "componentType": 5126,
      "count": 16,
      "type": "VEC3",
      "min": [
        -2.4,
        -1.7708180878537625,
        -2.4
      ],
      "max": [
        2.4,
        1.7708180878537625,
        2.4
      ]
    },
    {
      "bufferView": 17,
      "componentType": 5126,
      "count": 16,
      "type": "VEC3"
    },
    {
      "bufferView": 18,
      "componentType": 5126,
      "count": 16,
      "type": "VEC2"
    },
    {
      "bufferView": 19,
      "componentType": 5123,
      "count": 24,
      "type": "SCALAR",
      "min": [
        0
      ],
      "max": [
        15
      ]
    },
    {
      "bufferView": 20,
      "componentType": 5126,
      "count": 8,
      "type": "VEC3",
      "min": [
        -2.4,
        -1.7708180878537625,
        -2.4
      ],
      "max": [
        2.4,
        1.7708180878537625,
        2.4
      ]
    },
    {
      "bufferView": 21,
      "componentType": 5126,
      "count": 8,
      "type": "VEC3"
    },
    {
      "bufferView": 22,
      "componentType": 5126,
      "count": 8,
      "type": "VEC2"
    },
    {
      "bufferView": 23,
      "componentType": 5123,
      "count": 12,
      "type": "SCALAR",
      "min": [
        0
      ],
      "max": [
        7
      ]
    },
    {
      "bufferView": 24,
      "componentType": 5126,
      "count": 16,
      "type": "VEC3",
      "min": [
        -2.4,
        -1.7708180878537625,
        -2.4
      ],
      "max": [
        2.4,
        1.7708180878537625,
        2.4
      ]
    },
    {
      "bufferView": 25,
      "componentType": 5126,
      "count": 16,
      "type": "VEC3"
    },
    {
      "bufferView": 26,
      "componentType": 5126,
      "count": 16,
      "type": "VEC2"
    },
    {
      "bufferView": 27,
      "componentType": 5123,
      "count": 24,
      "type": "SCALAR",
      "min": [
        0
      ],
      "max": [
        15
      ]
    },
    {
      "bufferView": 28,
      "componentType": 5126,
      "count": 252,
      "type": "VEC3",
      "min": [
        -2.5,
        -1.8446021748476693,
        -2.5
      ],
      "max": [
        1.3745359946018985,
        1.8446021748476693,
        -0.6990865534445418
      ]
    },
    {
      "bufferView": 29,
      "componentType": 5126,
      "count": 252,
      "type": "VEC3"
    },
    {
      "bufferView": 30,
      "componentType": 5126,
      "count": 252,
      "type": "VEC2"
    },
    {
      "bufferView": 31,
      "componentType": 5123,
      "count": 252,
      "type": "SCALAR",
      "min": [
        0
      ],
      "max": [
        251
      ]
    },
    {
      "bufferView": 32,
      "componentType": 5126,
      "count": 8,
      "type": "VEC3",
      "min": [
        -2.4,
        -1.7708180878537625,
        -2.4
      ],
      "max": [
        2.4,
        1.7708180878537625,
        2.4
      ]
    },
    {
      "bufferView": 33,
      "componentType": 5126,
      "count": 8,
      "type": "VEC3"
    },
    {
      "bufferView": 34,
      "componentType": 5126,
      "count": 8,
      "type": "VEC2"
    },
    {
      "bufferView": 35,
      "componentType": 5123,
      "count": 12,
      "type": "SCALAR",
      "min": [
        0
      ],
      "max": [
        7
      ]
    },
    {
      "bufferView": 36,
      "componentType": 5126,
      "count": 16,
      "type": "VEC3",
      "min": [
        -2.4,
        -1.7708180878537625,
        -2.4
      ],
      "max": [
        2.4,
        1.7708180878537625,
        2.4
      ]
    },
    {
      "bufferView": 37,
      "componentType": 5126,
      "count": 16,
      "type": "VEC3"
    },
    {
      "bufferView": 38,
      "componentType": 5126,
      "count": 16,
      "type": "VEC2"
    },
    {
      "bufferView": 39,
      "componentType": 5123,
      "count": 24,
      "type": "SCALAR",
      "min": [
        0
      ],
      "max": [
        15
      ]
    },
    {
      "bufferView": 40,
      "componentType": 5126,
      "count": 8,
      "type": "VEC3",
      "min": [
        -2.4,
        -1.7708180878537625,
        -2.4
      ],
      "max": [
        2.4,
        1.7708180878537625,
        2.4
      ]
    },
    {
      "bufferView": 41,
      "componentType": 5126,
      "count": 8,
      "type": "VEC3"
    },
    {
      "bufferView": 42,
      "componentType": 5126,
      "count": 8,
      "type": "VEC2"
    },
    {
      "bufferView": 43,
      "componentType": 5123,
      "count": 12,
      "type": "SCALAR",
      "min": [
        0
      ],
      "max": [
        7
      ]
    },
    {
      "bufferView": 44,
      "componentType": 5126,
      "count": 16,
      "type": "VEC3",
      "min": [
        -2.4,
        -1.7708180878537625,
        -2.4
      ],
      "max": [
        2.4,
        1.7708180878537625,
        2.4
      ]
    },
    {
      "bufferView": 45,
      "componentType": 5126,
      "count": 16,
      "type": "VEC3"
    },
    {
      "bufferView": 46,
      "componentType": 5126,
      "count": 16,
      "type": "VEC2"
    },
    {
      "bufferView": 47,
      "componentType": 5123,
      "count": 24,
      "type": "SCALAR",
      "min": [
        0
      ],
      "max": [
        15
      ]
    },
    {
      "bufferView": 48,
      "componentType": 5126,
      "count": 432,
      "type": "VEC3",
      "min": [
        -2.2865398934992767,
        -1.8446021748476693,
        0.8970434366521931
      ],
      "max": [
        1.161075888101175,
        1.8446021748476689,
        2.5
      ]
    },
    {
      "bufferView": 49,
      "componentType": 5126,
      "count": 432,
      "type": "VEC3"
    },
    {
      "bufferView": 50,
      "componentType": 5126,
      "count": 432,
      "type": "VEC2"
    },
    {
      "bufferView": 51,
      "componentType": 5123,
      "count": 432,
      "type": "SCALAR",
      "min": [
        0
      ],
      "max": [
        431
      ]
    },
    {
      "bufferView": 52,
      "componentType": 5126,
      "count": 8,
      "type": "VEC3",
      "min": [
        -2.4,
        -1.7708180878537625,
        -2.4
      ],
      "max": [
        2.4,
        1.7708180878537625,
        2.4
      ]
    },
    {
      "bufferView": 53,
      "componentType": 5126,
      "count": 8,
      "type": "VEC3"
    },
    {
      "bufferView": 54,
      "componentType": 5126,
      "count": 8,
      "type": "VEC2"
    },
    {
      "bufferView": 55,
      "componentType": 5123,
      "count": 12,
      "type": "SCALAR",
      "min": [
        0
      ],
      "max": [
        7
      ]
    },
    {
      "bufferView": 56,
      "componentType": 5126,
      "count": 16,
      "type": "VEC3",
      "min": [
        -2.4,
        -1.7708180878537625,
        -2.4
      ],
      "max": [
        2.4,
        1.7708180878537625,
        2.4
      ]
    },
    {
      "bufferView": 57,
      "componentType": 5126,
      "count": 16,
      "type": "VEC3"
    },
    {
      "bufferView": 58,
      "componentType": 5126,
      "count": 16,
      "type": "VEC2"
    },
    {
      "bufferView": 59,
      "componentType": 5123,
      "count": 24,
      "type": "SCALAR",
      "min": [
        0
      ],
      "max": [
        15
      ]
    },
    {
      "bufferView": 60,
      "componentType": 5126,
      "count": 8,
      "type": "VEC3",
      "min": [
        -2.4,
        -1.7708180878537625,
        -2.4
      ],
      "max": [
        2.4,
        1.7708180878537625,
        2.4
      ]
    },
    {
      "bufferView": 61,
      "componentType": 5126,
      "count": 8,
      "type": "VEC3"
    },
    {
      "bufferView": 62,
      "componentType": 5126,
      "count": 8,
      "type": "VEC2"
    },
    {
      "bufferView": 63,
      "componentType": 5123,
      "count": 12,
      "type": "SCALAR",
      "min": [
        0
      ],
      "max": [
        7
      ]
    },
    {
      "bufferView": 64,
      "componentType": 5126,
      "count": 16,
      "type": "VEC3",
      "min": [
        -2.4,
        -1.7708180878537625,
        -2.4
      ],
      "max": [
        2.4,
        1.7708180878537625,
        2.4
      ]
    },
    {
      "bufferView": 65,
      "componentType": 5126,
      "count": 16,
      "type": "VEC3"
    },
    {
      "bufferView": 66,
      "componentType": 5126,
      "count": 16,
      "type": "VEC2"
    },
    {
      "bufferView": 67,
      "componentType": 5123,
      "count": 24,
      "type": "SCALAR",
      "min": [
        0
      ],
      "max": [
        15
      ]
    },
    {
      "bufferView": 68,
      "componentType": 5126,
      "count": 432,
      "type": "VEC3",
      "min": [
        -2.2865398934992767,
        -1.8446021748476693,
        -2.5
      ],
      "max": [
        1.161075888101175,
        1.8446021748476689,
        -0.8970434366521931
      ]
    },
    {
      "bufferView": 69,
      "componentType": 5126,
      "count": 432,
      "type": "VEC3"
    },
    {
      "bufferView": 70,
      "componentType": 5126,
      "count": 432,
      "type": "VEC2"
    },
    {
      "bufferView": 71,
      "componentType": 5123,
      "count": 432,
      "type": "SCALAR",
      "min": [
        0
      ],
      "max": [
        431
      ]
    },
    {
      "bufferView": 72,
      "componentType": 5126,
      "count": 8,
      "type": "VEC3",
      "min": [
        -2.4,
        -1.7708180878537625,
        -2.4
      ],
      "max": [
        2.4,
        1.7708180878537625,
        2.4
      ]
    },
    {
      "bufferView": 73,
      "componentType": 5126,
      "count": 8,
      "type": "VEC3"
    },
    {
      "bufferView": 74,
      "componentType": 5126,
      "count": 8,
      "type": "VEC2"
    },
    {
      "bufferView": 75,
      "componentType": 5123,
      "count": 12,
      "type": "SCALAR",
      "min": [
        0
      ],
      "max": [
        7
      ]
    },
    {
      "bufferView": 76,
      "componentType": 5126,
      "count": 16,
      "type": "VEC3",
      "min": [
        -2.4,
        -1.7708180878537625,
        -2.4
      ],
      "max": [
        2.4,
        1.7708180878537625,
        2.4
      ]
    },
    {
      "bufferView": 77,
      "componentType": 5126,
      "count": 16,
      "type": "VEC3"
    },
    {
      "bufferView": 78,
      "componentType": 5126,
      "count": 16,
      "type": "VEC2"
    },
    {
      "bufferView": 79,
      "componentType": 5123,
      "count": 24,
      "type": "SCALAR",
      "min": [
        0
      ],
      "max": [
        15
      ]
    },
    {
      "bufferView": 80,
      "componentType": 5126,
      "count": 8,
      "type": "VEC3",
      "min": [
        -2.4,
        -1.7708180878537625,
        -2.4
      ],
      "max": [
        2.4,
        1.7708180878537625,
        2.4
      ]
    },
    {
      "bufferView": 81,
      "componentType": 5126,
      "count": 8,
      "type": "VEC3"
    },
    {
      "bufferView": 82,
      "componentType": 5126,
      "count": 8,
      "type": "VEC2"
    },
    {
      "bufferView": 83,
      "componentType": 5123,
      "count": 12,
      "type": "SCALAR",
      "min": [
        0
      ],
      "max": [
        7
      ]
    },
    {
      "bufferView": 84,
      "componentType": 5126,
      "count": 16,
      "type": "VEC3",
      "min": [
        -2.4,
        -1.7708180878537625,
        -2.4
      ],
      "max": [
        2.4,
        1.7708180878537625,
        2.4
      ]
    },
    {
      "bufferView": 85,
      "componentType": 5126,
      "count": 16,
      "type": "VEC3"
    },
    {
      "bufferView": 86,
      "componentType": 5126,
      "count": 16,
      "type": "VEC2"
    },
    {
      "bufferView": 87,
      "componentType": 5123,
      "count": 24,
      "type": "SCALAR",
      "min": [
        0
      ],
      "max": [
        15
      ]
    },
    {
      "bufferView": 88,
      "componentType": 5126,
      "count": 432,
      "type": "VEC3",
      "min": [
        -1.9781534476371858,
        -1.8446021748476689,
        1.1787641959787296
      ],
      "max": [
        0.8526894422390847,
        1.8446021748476689,
        2.5
      ]
    },
    {
      "bufferView": 89,
      "componentType": 5126,
      "count": 432,
      "type": "VEC3"
    },
    {
      "bufferView": 90,
      "componentType": 5126,
      "count": 432,
      "type": "VEC2"
    },
    {
      "bufferView": 91,
      "componentType": 5123,
      "count": 432,
      "type": "SCALAR",
      "min": [
        0
      ],
      "max": [
        431
      ]
    },
    {
      "bufferView": 92,
      "componentType": 5126,
      "count": 8,
      "type": "VEC3",
      "min": [
        -2.4,
        -1.7708180878537625,
        -2.4
      ],
      "max": [
        2.4,
        1.7708180878537625,
        2.4
      ]
    },
    {
      "bufferView": 93,
      "componentType": 5126,
      "count": 8,
      "type": "VEC3"
    },
    {
      "bufferView": 94,
      "componentType": 5126,
      "count": 8,
      "type": "VEC2"
    },
    {
      "bufferView": 95,
      "componentType": 5123,
      "count": 12,
      "type": "SCALAR",
      "min": [
        0
      ],
      "max": [
        7
      ]
    },
    {
      "bufferView": 96,
      "componentType": 5126,
      "count": 16,
      "type": "VEC3",
      "min": [
        -2.4,
        -1.7708180878537625,
        -2.4
      ],
      "max": [
        2.4,
        1.7708180878537625,
        2.4
      ]
    },
    {
      "bufferView": 97,
      "componentType": 5126,
      "count": 16,
      "type": "VEC3"
    },
    {
      "bufferView": 98,
      "componentType": 5126,
      "count": 16,
      "type": "VEC2"
    },
    {
      "bufferView": 99,
      "componentType": 5123,
      "count": 24,
      "type": "SCALAR",
      "min": [
        0
      ],
      "max": [
        15
      ]
    },
    {
      "bufferView": 100,
      "componentType": 5126,
      "count": 8,
      "type": "VEC3",
      "min": [
        -2.4,
        -1.7708180878537625,
        -2.4
      ],
      "max": [
        2.4,
        1.7708180878537625,
        2.4
      ]
    },
    {
      "bufferView": 101,
      "componentType": 5126,
      "count": 8,
      "type": "VEC3"
    },
    {
      "bufferView": 102,
      "componentType": 5126,
      "count": 8,
      "type": "VEC2"
    },
    {
      "bufferView": 103,
      "componentType": 5123,
      "count": 12,
      "type": "SCALAR",
      "min": [
        0
      ],
      "max": [
        7
      ]
    },
    {
      "bufferView": 104,
      "componentType": 5126,
      "count": 16,
      "type": "VEC3",
      "min": [
        -2.4,
        -1.7708180878537625,
        -2.4
      ],
      "max": [
        2.4,
        1.7708180878537625,
        2.4
      ]
    },
    {
      "bufferView": 105,
      "componentType": 5126,
      "count": 16,
      "type": "VEC3"
    },
    {
      "bufferView": 106,
      "componentType": 5126,
      "count": 16,
      "type": "VEC2"
    },
    {
      "bufferView": 107,
      "componentType": 5123,
      "count": 24,
      "type": "SCALAR",
      "min": [
        0
      ],
      "max": [
        15
      ]
    },
    {
      "bufferView": 108,
      "componentType": 5126,
      "count": 432,
      "type": "VEC3",
      "min": [
        -1.9781534476371858,
        -1.8446021748476689,
        -2.5
      ],
      "max": [
        0.8526894422390847,
        1.8446021748476689,
        -1.1787641959787296
      ]
    },
    {
      "bufferView": 109,
      "componentType": 5126,
      "count": 432,
      "type": "VEC3"
    },
    {
      "bufferView": 110,
      "componentType": 5126,
      "count": 432,
      "type": "VEC2"
    },
    {
      "bufferView": 111,
      "componentType": 5123,
      "count": 432,
      "type": "SCALAR",
      "min": [
        0
      ],
      "max": [
        431
      ]
    },
    {
      "bufferView": 112,
      "componentType": 5126,
      "count": 8,
      "type": "VEC3",
      "min": [
        -2.4,
        -1.7708180878537625,
        -2.4
      ],
      "max": [
        2.4,
        1.7708180878537625,
        2.4
      ]
    },
    {
      "bufferView": 113,
      "componentType": 5126,
      "count": 8,
      "type": "VEC3"
    },
    {
      "bufferView": 114,
      "componentType": 5126,
      "count": 8,
      "type": "VEC2"
    },
    {
      "bufferView": 115,
      "componentType": 5123,
      "count": 12,
      "type": "SCALAR",
      "min": [
        0
      ],
      "max": [
        7
      ]
    },
    {
      "bufferView": 116,
      "componentType": 5126,
      "count": 16,
      "type": "VEC3",
      "min": [
        -2.4,
        -1.7708180878537625,
        -2.4
      ],
      "max": [
        2.4,
        1.7708180878537625,
        2.4
      ]
    },
    {
      "bufferView": 117,
      "componentType": 5126,
      "count": 16,
      "type": "VEC3"
    },
    {
      "bufferView": 118,
      "componentType": 5126,
      "count": 16,
      "type": "VEC2"
    },
    {
      "bufferView": 119,
      "componentType": 5123,
      "count": 24,
      "type": "SCALAR",
      "min": [
        0
      ],
      "max": [
        15
      ]
    },
    {
      "bufferView": 120,
      "componentType": 5126,
      "count": 8,
      "type": "VEC3",
      "min": [
        -2.4,
        -1.7708180878537625,
        -2.4
      ],
      "max": [
        2.4,
        1.7708180878537625,
        2.4
      ]
    },
    {
      "bufferView": 121,
      "componentType": 5126,
      "count": 8,
      "type": "VEC3"
    },
    {
      "bufferView": 122,
      "componentType": 5126,
      "count": 8,
      "type": "VEC2"
    },
    {
      "bufferView": 123,
      "componentType": 5123,
      "count": 12,
      "type": "SCALAR",
      "min": [
        0
      ],
      "max": [
        7
      ]
    },
    {
      "bufferView": 124,
      "componentType": 5126,
      "count": 16,
      "type": "VEC3",
      "min": [
        -2.4,
        -1.7708180878537625,
        -2.4
      ],
      "max": [
        2.4,
        1.7708180878537625,
        2.4
      ]
    },
    {
      "bufferView": 125,
      "componentType": 5126,
      "count": 16,
      "type": "VEC3"
    },
    {
      "bufferView": 126,
      "componentType": 5126,
      "count": 16,
      "type": "VEC2"
    },
    {
      "bufferView": 127,
      "componentType": 5123,
      "count": 24,
      "type": "SCALAR",
      "min": [
        0
      ],
      "max": [
        15
      ]
    },
    {
      "bufferView": 128,
      "componentType": 5126,
      "count": 348,
      "type": "VEC3",
      "min": [
        -1.6697174444220781,
        -1.8446021748476689,
        1.4581135087300783
      ],
      "max": [
        0.5442534390239764,
        1.8446021748476689,
        2.5
      ]
    },
    {
      "bufferView": 129,
      "componentType": 5126,
      "count": 348,
      "type": "VEC3"
    },
    {
      "bufferView": 130,
      "componentType": 5126,
      "count": 348,
      "type": "VEC2"
    },
    {
      "bufferView": 131,
      "componentType": 5123,
      "count": 348,
      "type": "SCALAR",
      "min": [
        0
      ],
      "max": [
        347
      ]
    },
    {
      "bufferView": 132,
      "componentType": 5126,
      "count": 8,
      "type": "VEC3",
      "min": [
        -2.4,
        -1.7708180878537625,
        -2.4
      ],
      "max": [
        2.4,
        1.7708180878537625,
        2.4
      ]
    },
    {
      "bufferView": 133,
      "componentType": 5126,
      "count": 8,
      "type": "VEC3"
    },
    {
      "bufferView": 134,
      "componentType": 5126,
      "count": 8,
      "type": "VEC2"
    },
    {
      "bufferView": 135,
      "componentType": 5123,
      "count": 12,
      "type": "SCALAR",
      "min": [
        0
      ],
      "max": [
        7
      ]
    },
    {
      "bufferView": 136,
      "componentType": 5126,
      "count": 16,
      "type": "VEC3",
      "min": [
        -2.4,
        -1.7708180878537625,
        -2.4
      ],
      "max": [
        2.4,
        1.7708180878537625,
        2.4
      ]
    },
    {
      "bufferView": 137,
      "componentType": 5126,
      "count": 16,
      "type": "VEC3"
    },
    {
      "bufferView": 138,
      "componentType": 5126,
      "count": 16,
      "type": "VEC2"
    },
    {
      "bufferView": 139,
      "componentType": 5123,
      "count": 24,
      "type": "SCALAR",
      "min": [
        0
      ],
      "max": [
        15
      ]
    },
    {
      "bufferView": 140,
      "componentType": 5126,
      "count": 8,
      "type": "VEC3",
      "min": [
        -2.4,
        -1.7708180878537625,
        -2.4
      ],
      "max": [
        2.4,
        1.7708180878537625,
        2.4
      ]
    },
    {
      "bufferView": 141,
      "componentType": 5126,
      "count": 8,
      "type": "VEC3"
    },
    {
      "bufferView": 142,
      "componentType": 5126,
      "count": 8,
      "type": "VEC2"
    },
    {
      "bufferView": 143,
      "componentType": 5123,
      "count": 12,
      "type": "SCALAR",
      "min": [
        0
      ],
      "max": [
        7
      ]
    },
    {
      "bufferView": 144,
      "componentType": 5126,
      "count": 16,
      "type": "VEC3",
      "min": [
        -2.4,
        -1.7708180878537625,
        -2.4
      ],
      "max": [
        2.4,
        1.7708180878537625,
        2.4
      ]
    },
    {
      "bufferView": 145,
      "componentType": 5126,
      "count": 16,
      "type": "VEC3"
    },
    {
      "bufferView": 146,
      "componentType": 5126,
      "count": 16,
      "type": "VEC2"
    },
    {
      "bufferView": 147,
      "componentType": 5123,
      "count": 24,
      "type": "SCALAR",
      "min": [
        0
      ],
      "max": [
        15
      ]
    },
    {
      "bufferView": 148,
      "componentType": 5126,
      "count": 333,
      "type": "VEC3",
      "min": [
        -1.6697174444220781,
        -1.8446021748476689,
        -2.5
      ],
      "max": [
        0.5442534390239764,
        1.8446021748476689,
        -1.4581135087300783
      ]
    },
    {
      "bufferView": 149,
      "componentType": 5126,
      "count": 333,
      "type": "VEC3"
    },
    {
      "bufferView": 150,
      "componentType": 5126,
      "count": 333,
      "type": "VEC2"
    },
    {
      "bufferView": 151,
      "componentType": 5123,
      "count": 333,
      "type": "SCALAR",
      "min": [
        0
      ],
      "max": [
        332
      ]
    },
    {
      "bufferView": 152,
      "componentType": 5126,
      "count": 8,
      "type": "VEC3",
      "min": [
        -2.4,
        -1.7708180878537625,
        -2.4
      ],
      "max": [
        2.4,
        1.7708180878537625,
        2.4
      ]
    },
    {
      "bufferView": 153,
      "componentType": 5126,
      "count": 8,
      "type": "VEC3"
    },
    {
      "bufferView": 154,
      "componentType": 5126,
      "count": 8,
      "type": "VEC2"
    },
    {
      "bufferView": 155,
      "componentType": 5123,
      "count": 12,
      "type": "SCALAR",
      "min": [
        0
      ],
      "max": [
        7
      ]
    },
    {
      "bufferView": 156,
      "componentType": 5126,
      "count": 16,
      "type": "VEC3",
      "min": [
        -2.4,
        -1.7708180878537625,
        -2.4
      ],
      "max": [
        2.4,
        1.7708180878537625,
        2.4
      ]
    },
    {
      "bufferView": 157,
      "componentType": 5126,
      "count": 16,
      "type": "VEC3"
    },
    {
      "bufferView": 158,
      "componentType": 5126,
      "count": 16,
      "type": "VEC2"
    },
    {
      "bufferView": 159,
      "componentType": 5123,
      "count": 24,
      "type": "SCALAR",
      "min": [
        0
      ],
      "max": [
        15
      ]
    },
    {
      "bufferView": 160,
      "componentType": 5126,
      "count": 8,
      "type": "VEC3",
      "min": [
        -2.4,
        -1.7708180878537625,
        -2.4
      ],
      "max": [
        2.4,
        1.7708180878537625,
        2.4
      ]
    },
    {
      "bufferView": 161,
      "componentType": 5126,
      "count": 8,
      "type": "VEC3"
    },
    {
      "bufferView": 162,
      "componentType": 5126,
      "count": 8,
      "type": "VEC2"
    },
    {
      "bufferView": 163,
      "componentType": 5123,
      "count": 12,
      "type": "SCALAR",
      "min": [
        0
      ],
      "max": [
        7
      ]
    },
    {
      "bufferView": 164,
      "componentType": 5126,
      "count": 4,
      "type": "VEC3",
      "min": [
        -2.4,
        -1.7708180878537625,
        -2.4
      ],
      "max": [
        2.4,
        1.7708180878537625,
        2.4
      ]
    },
    {
      "bufferView": 165,
      "componentType": 5126,
      "count": 4,
      "type": "VEC3"
    },
    {
      "bufferView": 166,
      "componentType": 5126,
      "count": 4,
      "type": "VEC2"
    },
    {
      "bufferView": 167,
      "componentType": 5123,
      "count": 6,
      "type": "SCALAR",
      "min": [
        0
      ],
      "max": [
        3
      ]
    },
    {
      "bufferView": 168,
      "componentType": 5126,
      "count": 12,
      "type": "VEC3",
      "min": [
        -2.4,
        -1.7708180878537625,
        -2.4
      ],
      "max": [
        2.4,
        1.7708180878537625,
        2.4
      ]
    },
    {
      "bufferView": 169,
      "componentType": 5126,
      "count": 12,
      "type": "VEC3"
    },
    {
      "bufferView": 170,
      "componentType": 5126,
      "count": 12,
      "type": "VEC2"
    },
    {
      "bufferView": 171,
      "componentType": 5123,
      "count": 18,
      "type": "SCALAR",
      "min": [
        0
      ],
      "max": [
        11
      ]
    },
    {
      "bufferView": 172,
      "componentType": 5126,
      "count": 243,
      "type": "VEC3",
      "min": [
        -1.459745978268021,
        -1.8446021748476689,
        1.644873386119355
      ],
      "max": [
        0.3342819728699191,
        0.52223834484262,
        2.5
      ]
    },
    {
      "bufferView": 173,
      "componentType": 5126,
      "count": 243,
      "type": "VEC3"
    },
    {
      "bufferView": 174,
      "componentType": 5126,
      "count": 243,
      "type": "VEC2"
    },
    {
      "bufferView": 175,
      "componentType": 5123,
      "count": 243,
      "type": "SCALAR",
      "min": [
        0
      ],
      "max": [
        242
      ]
    },
    {
      "bufferView": 176,
      "componentType": 5126,
      "count": 30,
      "type": "VEC3",
      "min": [
        -0.3473627695020842,
        0.21516826850337267,
        2.299211904895225
      ],
      "max": [
        2.5,
        0.52223834484262,
        2.5
      ]
    },
    {
      "bufferView": 177,
      "componentType": 5126,
      "count": 30,
      "type": "VEC3"
    },
    {
      "bufferView": 178,
      "componentType": 5126,
      "count": 30,
      "type": "VEC2"
    },
    {
      "bufferView": 179,
      "componentType": 5123,
      "count": 30,
      "type": "SCALAR",
      "min": [
        0
      ],
      "max": [
        29
      ]
    },
    {
      "bufferView": 180,
      "componentType": 5126,
      "count": 8,
      "type": "VEC3",
      "min": [
        -2.4,
        -1.7708180878537625,
        -2.4
      ],
      "max": [
        2.4,
        1.7708180878537625,
        2.4
      ]
    },
    {
      "bufferView": 181,
      "componentType": 5126,
      "count": 8,
      "type": "VEC3"
    },
    {
      "bufferView": 182,
      "componentType": 5126,
      "count": 8,
      "type": "VEC2"
    },
    {
      "bufferView": 183,
      "componentType": 5123,
      "count": 12,
      "type": "SCALAR",
      "min": [
        0
      ],
      "max": [
        7
      ]
    },
    {
      "bufferView": 184,
      "componentType": 5126,
      "count": 4,
      "type": "VEC3",
      "min": [
        -2.4,
        -1.7708180878537625,
        -2.4
      ],
      "max": [
        2.4,
        1.7708180878537625,
        2.4
      ]
    },
    {
      "bufferView": 185,
      "componentType": 5126,
      "count": 4,
      "type": "VEC3"
    },
    {
      "bufferView": 186,
      "componentType": 5126,
      "count": 4,
      "type": "VEC2"
    },
    {
      "bufferView": 187,
      "componentType": 5123,
      "count": 6,
      "type": "SCALAR",
      "min": [
        0
      ],
      "max": [
        3
      ]
    },
    {
      "bufferView": 188,
      "componentType": 5126,
      "count": 12,
      "type": "VEC3",
      "min": [
        -2.4,
        -1.7708180878537625,
        -2.4
      ],
      "max": [
        2.4,
        1.7708180878537625,
        2.4
      ]
    },
    {
      "bufferView": 189,
      "componentType": 5126,
      "count": 12,
      "type": "VEC3"
    },
    {
      "bufferView": 190,
      "componentType": 5126,
      "count": 12,
      "type": "VEC2"
    },
    {
      "bufferView": 191,
      "componentType": 5123,
      "count": 18,
      "type": "SCALAR",
      "min": [
        0
      ],
      "max": [
        11
      ]
    },
    {
      "bufferView": 192,
      "componentType": 5126,
      "count": 153,
      "type": "VEC3",
      "min": [
        -2.5,
        -1.1004445410150208,
        2.299211904895225
      ],
      "max": [
        2.5,
        1.8446021748476724,
        2.5
      ]
    },
    {
      "bufferView": 193,
      "componentType": 5126,
      "count": 153,
      "type": "VEC3"
    },
    {
      "bufferView": 194,
      "componentType": 5126,
      "count": 153,
      "type": "VEC2"
    },
    {
      "bufferView": 195,
      "componentType": 5123,
      "count": 153,
      "type": "SCALAR",
      "min": [
        0
      ],
      "max": [
        152
      ]
    },
    {
      "bufferView": 196,
      "componentType": 5126,
      "count": 8,
      "type": "VEC3",
      "min": [
        -2.4,
        -1.7708180878537625,
        -2.4
      ],
      "max": [
        2.4,
        1.7708180878537625,
        2.4
      ]
    },
    {
      "bufferView": 197,
      "componentType": 5126,
      "count": 8,
      "type": "VEC3"
    },
    {
      "bufferView": 198,
      "componentType": 5126,
      "count": 8,
      "type": "VEC2"
    },
    {
      "bufferView": 199,
      "componentType": 5123,
      "count": 12,
      "type": "SCALAR",
      "min": [
        0
      ],
      "max": [
        7
      ]
    },
    {
      "bufferView": 200,
      "componentType": 5126,
      "count": 4,
      "type": "VEC3",
      "min": [
        -2.4,
        -1.7708180878537625,
        -2.4
      ],
      "max": [
        2.4,
        1.7708180878537625,
        2.4
      ]
    },
    {
      "bufferView": 201,
      "componentType": 5126,
      "count": 4,
      "type": "VEC3"
    },
    {
      "bufferView": 202,
      "componentType": 5126,
      "count": 4,
      "type": "VEC2"
    },
    {
      "bufferView": 203,
      "componentType": 5123,
      "count": 6,
      "type": "SCALAR",
      "min": [
        0
      ],
      "max": [
        3
      ]
    },
    {
      "bufferView": 204,
      "componentType": 5126,
      "count": 12,
      "type": "VEC3",
      "min": [
        -2.4,
        -1.7708180878537625,
        -2.4
      ],
      "max": [
        2.4,
        1.7708180878537625,
        2.4
      ]
    },
    {
      "bufferView": 205,
      "componentType": 5126,
      "count": 12,
      "type": "VEC3"
    },
    {
      "bufferView": 206,
      "componentType": 5126,
      "count": 12,
      "type": "VEC2"
    },
    {
      "bufferView": 207,
      "componentType": 5123,
      "count": 18,
      "type": "SCALAR",
      "min": [
        0
      ],
      "max": [
        11
      ]
    },
    {
      "bufferView": 208,
      "componentType": 5126,
      "count": 234,
      "type": "VEC3",
      "min": [
        -1.459745978268021,
        -1.8446021748476689,
        -2.5
      ],
      "max": [
        0.3342819728699191,
        0.52223834484262,
        -1.099170941200625
      ]
    },
    {
      "bufferView": 209,
      "componentType": 5126,
      "count": 234,
      "type": "VEC3"
    },
    {
      "bufferView": 210,
      "componentType": 5126,
      "count": 234,
      "type": "VEC2"
    },
    {
      "bufferView": 211,
      "componentType": 5123,
      "count": 234,
      "type": "SCALAR",
      "min": [
        0
      ],
      "max": [
        233
      ]
    },
    {
      "bufferView": 212,
      "componentType": 5126,
      "count": 30,
      "type": "VEC3",
      "min": [
        -0.3473627695020842,
        0.21516826850337267,
        -2.5
      ],
      "max": [
        2.5,
        0.52223834484262,
        -2.299211904895225
      ]
    },
    {
      "bufferView": 213,
      "componentType": 5126,
      "count": 30,
      "type": "VEC3"
    },
    {
      "bufferView": 214,
      "componentType": 5126,
      "count": 30,
      "type": "VEC2"
    },
    {
      "bufferView": 215,
      "componentType": 5123,
      "count": 30,
      "type": "SCALAR",
      "min": [
        0
      ],
      "max": [
        29
      ]
    },
    {
      "bufferView": 216,
      "componentType": 5126,
      "count": 8,
      "type": "VEC3",
      "min": [
        -2.4,
        -1.7708180878537625,
        -2.4
      ],
      "max": [
        2.4,
        1.7708180878537625,
        2.4
      ]
    },
    {
      "bufferView": 217,
      "componentType": 5126,
      "count": 8,
      "type": "VEC3"
    },
    {
      "bufferView": 218,
      "componentType": 5126,
      "count": 8,
      "type": "VEC2"
    },
    {
      "bufferView": 219,
      "componentType": 5123,
      "count": 12,
      "type": "SCALAR",
      "min": [
        0
      ],
      "max": [
        7
      ]
    },
    {
      "bufferView": 220,
      "componentType": 5126,
      "count": 4,
      "type": "VEC3",
      "min": [
        -2.4,
        -1.7708180878537625,
        -2.4
      ],
      "max": [
        2.4,
        1.7708180878537625,
        2.4
      ]
    },
    {
      "bufferView": 221,
      "componentType": 5126,
      "count": 4,
      "type": "VEC3"
    },
    {
      "bufferView": 222,
      "componentType": 5126,
      "count": 4,
      "type": "VEC2"
    },
    {
      "bufferView": 223,
      "componentType": 5123,
      "count": 6,
      "type": "SCALAR",
      "min": [
        0
      ],
      "max": [
        3
      ]
    },
    {
      "bufferView": 224,
      "componentType": 5126,
      "count": 12,
      "type": "VEC3",
      "min": [
        -2.4,
        -1.7708180878537625,
        -2.4
      ],
      "max": [
        2.4,
        1.7708180878537625,
        2.4
      ]
    },
    {
      "bufferView": 225,
      "componentType": 5126,
      "count": 12,
      "type": "VEC3"
    },
    {
      "bufferView": 226,
      "componentType": 5126,
      "count": 12,
      "type": "VEC2"
    },
    {
      "bufferView": 227,
      "componentType": 5123,
      "count": 18,
      "type": "SCALAR",
      "min": [
        0
      ],
      "max": [
        11
      ]
    },
    {
      "bufferView": 228,
      "componentType": 5126,
      "count": 153,
      "type": "VEC3",
      "min": [
        -2.5,
        -1.1004445410150208,
        -2.5
      ],
      "max": [
        2.5,
        1.8446021748476724,
        -2.299211904895225
      ]
    },
    {
      "bufferView": 229,
      "componentType": 5126,
      "count": 153,
      "type": "VEC3"
    },
    {
      "bufferView": 230,
      "componentType": 5126,
      "count": 153,
      "type": "VEC2"
    },
    {
      "bufferView": 231,
      "componentType": 5123,
      "count": 153,
      "type": "SCALAR",
      "min": [
        0
      ],
      "max": [
        152
      ]
    }
  ],
  "bufferViews": [
    {
      "buffer": 0,
      "byteOffset": 0,
      "byteLength": 96,
      "target": 34962
    },
    {
      "buffer": 0,
      "byteOffset": 96,
      "byteLength": 96,
      "target": 34962
    },
    {
      "buffer": 0,
      "byteOffset": 192,
      "byteLength": 64,
      "target": 34962
    },
    {
      "buffer": 0,
      "byteOffset": 256,
      "byteLength": 24,
      "target": 34963
    },
    {
      "buffer": 0,
      "byteOffset": 280,
      "byteLength": 192,
      "target": 34962
    },
    {
      "buffer": 0,
      "byteOffset": 472,
      "byteLength": 192,
      "target": 34962
    },
    {
      "buffer": 0,
      "byteOffset": 664,
      "byteLength": 128,
      "target": 34962
    },
    {
      "buffer": 0,
      "byteOffset": 792,
      "byteLength": 48,
      "target": 34963
    },
    {
      "buffer": 0,
      "byteOffset": 840,
      "byteLength": 3024,
      "target": 34962
    },
    {
      "buffer": 0,
      "byteOffset": 3864,
      "byteLength": 3024,
      "target": 34962
    },
    {
      "buffer": 0,
      "byteOffset": 6888,
      "byteLength": 2016,
      "target": 34962
    },
    {
      "buffer": 0,
      "byteOffset": 8904,
      "byteLength": 504,
      "target": 34963
    },
    {
      "buffer": 0,
      "byteOffset": 9408,
      "byteLength": 96,
      "target": 34962
    },
    {
      "buffer": 0,
      "byteOffset": 9504,
      "byteLength": 96,
      "target": 34962
    },
    {
      "buffer": 0,
      "byteOffset": 9600,
      "byteLength": 64,
      "target": 34962
    },
    {
      "buffer": 0,
      "byteOffset": 9664,
      "byteLength": 24,
      "target": 34963
    },
    {
      "buffer": 0,
      "byteOffset": 9688,
      "byteLength": 192,
      "target": 34962
    },
    {
      "buffer": 0,
      "byteOffset": 9880,
      "byteLength": 192,
      "target": 34962
    },
    {
      "buffer": 0,
      "byteOffset": 10072,
      "byteLength": 128,
      "target": 34962
    },
    {
      "buffer": 0,
      "byteOffset": 10200,
      "byteLength": 48,
      "target": 34963
    },
    {
      "buffer": 0,
      "byteOffset": 10248,
      "byteLength": 96,
      "target": 34962
    },
    {
      "buffer": 0,
      "byteOffset": 10344,
      "byteLength": 96,
      "target": 34962
    },
    {
      "buffer": 0,
      "byteOffset": 10440,
      "byteLength": 64,
      "target": 34962
    },
    {
      "buffer": 0,
      "byteOffset": 10504,
      "byteLength": 24,
      "target": 34963
    },
    {
      "buffer": 0,
      "byteOffset": 10528,
      "byteLength": 192,
      "target": 34962
    },
    {
      "buffer": 0,
      "byteOffset": 10720,
      "byteLength": 192,
      "target": 34962
    },
    {
      "buffer": 0,
      "byteOffset": 10912,
      "byteLength": 128,
      "target": 34962
    },
    {
      "buffer": 0,
      "byteOffset": 11040,
      "byteLength": 48,
      "target": 34963
    },
    {
      "buffer": 0,
      "byteOffset": 11088,
      "byteLength": 3024,
      "target": 34962
    },
    {
      "buffer": 0,
      "byteOffset": 14112,
      "byteLength": 3024,
      "target": 34962
    },
    {
      "buffer": 0,
      "byteOffset": 17136,
      "byteLength": 2016,
      "target": 34962
    },
    {
      "buffer": 0,
      "byteOffset": 19152,
      "byteLength": 504,
      "target": 34963
    },
    {
      "buffer": 0,
      "byteOffset": 19656,
      "byteLength": 96,
      "target": 34962
    },
    {
      "buffer": 0,
      "byteOffset": 19752,
      "byteLength": 96,
      "target": 34962
    },
    {
      "buffer": 0,
      "byteOffset": 19848,
      "byteLength": 64,
      "target": 34962
    },
    {
      "buffer": 0,
      "byteOffset": 19912,
      "byteLength": 24,
      "target": 34963
    },
    {
      "buffer": 0,
      "byteOffset": 19936,
      "byteLength": 192,
      "target": 34962
    },
    {
      "buffer": 0,
      "byteOffset": 20128,
      "byteLength": 192,
      "target": 34962
    },
    {
      "buffer": 0,
      "byteOffset": 20320,
      "byteLength": 128,
      "target": 34962
    },
    {
      "buffer": 0,
      "byteOffset": 20448,
      "byteLength": 48,
      "target": 34963
    },
    {
      "buffer": 0,
      "byteOffset": 20496,
      "byteLength": 96,
      "target": 34962
    },
    {
      "buffer": 0,
      "byteOffset": 20592,
      "byteLength": 96,
      "target": 34962
    },
    {
      "buffer": 0,
      "byteOffset": 20688,
      "byteLength": 64,
      "target": 34962
    },
    {
      "buffer": 0,
      "byteOffset": 20752,
      "byteLength": 24,
      "target": 34963
    },
    {
      "buffer": 0,
      "byteOffset": 20776,
      "byteLength": 192,
      "target": 34962
    },
    {
      "buffer": 0,
      "byteOffset": 20968,
      "byteLength": 192,
      "target": 34962
    },
    {
      "buffer": 0,
      "byteOffset": 21160,
      "byteLength": 128,
      "target": 34962
    },
    {
      "buffer": 0,
      "byteOffset": 21288,
      "byteLength": 48,
      "target": 34963
    },
    {
      "buffer": 0,
      "byteOffset": 21336,
      "byteLength": 5184,
      "target": 34962
    },
    {
      "buffer": 0,
      "byteOffset": 26520,
      "byteLength": 5184,
      "target": 34962
    },
    {
      "buffer": 0,
      "byteOffset": 31704,
      "byteLength": 3456,
      "target": 34962
    },
    {
      "buffer": 0,
      "byteOffset": 35160,
      "byteLength": 864,
      "target": 34963
    },
    {
      "buffer": 0,
      "byteOffset": 36024,
      "byteLength": 96,
      "target": 34962
    },
    {
      "buffer": 0,
      "byteOffset": 36120,
      "byteLength": 96,
      "target": 34962
    },
    {
      "buffer": 0,
      "byteOffset": 36216,
      "byteLength": 64,
      "target": 34962
    },
    {
      "buffer": 0,
      "byteOffset": 36280,
      "byteLength": 24,
      "target": 34963
    },
    {
      "buffer": 0,
      "byteOffset": 36304,
      "byteLength": 192,
      "target": 34962
    },
    {
      "buffer": 0,
      "byteOffset": 36496,
      "byteLength": 192,
      "target": 34962
    },
    {
      "buffer": 0,
      "byteOffset": 36688,
      "byteLength": 128,
      "target": 34962
    },
    {
      "buffer": 0,
      "byteOffset": 36816,
      "byteLength": 48,
      "target": 34963
    },
    {
      "buffer": 0,
      "byteOffset": 36864,
      "byteLength": 96,
      "target": 34962
    },
    {
      "buffer": 0,
      "byteOffset": 36960,
      "byteLength": 96,
      "target": 34962
    },
    {
      "buffer": 0,
      "byteOffset": 37056,
      "byteLength": 64,
      "target": 34962
    },
    {
      "buffer": 0,
      "byteOffset": 37120,
      "byteLength": 24,
      "target": 34963
    },
    {
      "buffer": 0,
      "byteOffset": 37144,
      "byteLength": 192,
      "target": 34962
    },
    {
      "buffer": 0,
      "byteOffset": 37336,
      "byteLength": 192,
      "target": 34962
    },
    {
      "buffer": 0,
      "byteOffset": 37528,
      "byteLength": 128,
      "target": 34962
    },
    {
      "buffer": 0,
      "byteOffset": 37656,
      "byteLength": 48,
      "target": 34963
    },
    {
      "buffer": 0,
      "byteOffset": 37704,
      "byteLength": 5184,
      "target": 34962
    },
    {
      "buffer": 0,
      "byteOffset": 42888,
      "byteLength": 5184,
      "target": 34962
    },
    {
      "buffer": 0,
      "byteOffset": 48072,
      "byteLength": 3456,
      "target": 34962
    },
    {
      "buffer": 0,
      "byteOffset": 51528,
      "byteLength": 864,
      "target": 34963
    },
    {
      "buffer": 0,
      "byteOffset": 52392,
      "byteLength": 96,
      "target": 34962
    },
    {
      "buffer": 0,
      "byteOffset": 52488,
      "byteLength": 96,
      "target": 34962
    },
    {
      "buffer": 0,
      "byteOffset": 52584,
      "byteLength": 64,
      "target": 34962
    },
    {
      "buffer": 0,
      "byteOffset": 52648,
      "byteLength": 24,
      "target": 34963
    },
    {
      "buffer": 0,
      "byteOffset": 52672,
      "byteLength": 192,
      "target": 34962
    },
    {
      "buffer": 0,
      "byteOffset": 52864,
      "byteLength": 192,
      "target": 34962
    },
    {
      "buffer": 0,
      "byteOffset": 53056,
      "byteLength": 128,
      "target": 34962
    },
    {
      "buffer": 0,
      "byteOffset": 53184,
      "byteLength": 48,
      "target": 34963
    },
    {
      "buffer": 0,
      "byteOffset": 53232,
      "byteLength": 96,
      "target": 34962
    },
    {
      "buffer": 0,
      "byteOffset": 53328,
      "byteLength": 96,
      "target": 34962
    },
    {
      "buffer": 0,
      "byteOffset": 53424,
      "byteLength": 64,
      "target": 34962
    },
    {
      "buffer": 0,
      "byteOffset": 53488,
      "byteLength": 24,
      "target": 34963
    },
    {
      "buffer": 0,
      "byteOffset": 53512,
      "byteLength": 192,
      "target": 34962
    },
    {
      "buffer": 0,
      "byteOffset": 53704,
      "byteLength": 192,
      "target": 34962
    },
    {
      "buffer": 0,
      "byteOffset": 53896,
      "byteLength": 128,
      "target": 34962
    },
    {
      "buffer": 0,
      "byteOffset": 54024,
      "byteLength": 48,
      "target": 34963
    },
    {
      "buffer": 0,
      "byteOffset": 54072,
      "byteLength": 5184,
      "target": 34962
    },
    {
      "buffer": 0,
      "byteOffset": 59256,
      "byteLength": 5184,
      "target": 34962
    },
    {
      "buffer": 0,
      "byteOffset": 64440,
      "byteLength": 3456,
      "target": 34962
    },
    {
      "buffer": 0,
      "byteOffset": 67896,
      "byteLength": 864,
      "target": 34963
    },
    {
      "buffer": 0,
      "byteOffset": 68760,
      "byteLength": 96,
      "target": 34962
    },
    {
      "buffer": 0,
      "byteOffset": 68856,
      "byteLength": 96,
      "target": 34962
    },
    {
      "buffer": 0,
      "byteOffset": 68952,
      "byteLength": 64,
      "target": 34962
    },
    {
      "buffer": 0,
      "byteOffset": 69016,
      "byteLength": 24,
      "target": 34963
    },
    {
      "buffer": 0,
      "byteOffset": 69040,
      "byteLength": 192,
      "target": 34962
    },
    {
      "buffer": 0,
      "byteOffset": 69232,
      "byteLength": 192,
      "target": 34962
    },
    {
      "buffer": 0,
      "byteOffset": 69424,
      "byteLength": 128,
      "target": 34962
    },
    {
      "buffer": 0,
      "byteOffset": 69552,
      "byteLength": 48,
      "target": 34963
    },
    {
      "buffer": 0,
      "byteOffset": 69600,
      "byteLength": 96,
      "target": 34962
    },
    {
      "buffer": 0,
      "byteOffset": 69696,
      "byteLength": 96,
      "target": 34962
    },
    {
      "buffer": 0,
      "byteOffset": 69792,
      "byteLength": 64,
      "target": 34962
    },
    {
      "buffer": 0,
      "byteOffset": 69856,
      "byteLength": 24,
      "target": 34963
    },
    {
      "buffer": 0,
      "byteOffset": 69880,
      "byteLength": 192,
      "target": 34962
    },
    {
      "buffer": 0,
      "byteOffset": 70072,
      "byteLength": 192,
      "target": 34962
    },
    {
      "buffer": 0,
      "byteOffset": 70264,
      "byteLength": 128,
      "target": 34962
    },
    {
      "buffer": 0,
      "byteOffset": 70392,
      "byteLength": 48,
      "target": 34963
    },
    {
      "buffer": 0,
      "byteOffset": 70440,
      "byteLength": 5184,
      "target": 34962
    },
    {
      "buffer": 0,
      "byteOffset": 75624,
      "byteLength": 5184,
      "target": 34962
    },
    {
      "buffer": 0,
      "byteOffset": 80808,
      "byteLength": 3456,
      "target": 34962
    },
    {
      "buffer": 0,
      "byteOffset": 84264,
      "byteLength": 864,
      "target": 34963
    },
    {
      "buffer": 0,
      "byteOffset": 85128,
      "byteLength": 96,
      "target": 34962
    },
    {
      "buffer": 0,
      "byteOffset": 85224,
      "byteLength": 96,
      "target": 34962
    },
    {
      "buffer": 0,
      "byteOffset": 85320,
      "byteLength": 64,
      "target": 34962
    },
    {
      "buffer": 0,
      "byteOffset": 85384,
      "byteLength": 24,
      "target": 34963
    },
    {
      "buffer": 0,
      "byteOffset": 85408,
      "byteLength": 192,
      "target": 34962
    },
    {
      "buffer": 0,
      "byteOffset": 85600,
      "byteLength": 192,
      "target": 34962
    },
    {
      "buffer": 0,
      "byteOffset": 85792,
      "byteLength": 128,
      "target": 34962
    },
    {
      "buffer": 0,
      "byteOffset": 85920,
      "byteLength": 48,
      "target": 34963
    },
    {
      "buffer": 0,
      "byteOffset": 85968,
      "byteLength": 96,
      "target": 34962
    },
    {
      "buffer": 0,
      "byteOffset": 86064,
      "byteLength": 96,
      "target": 34962
    },
    {
      "buffer": 0,
      "byteOffset": 86160,
      "byteLength": 64,
      "target": 34962
    },
    {
      "buffer": 0,
      "byteOffset": 86224,
      "byteLength": 24,
      "target": 34963
    },
    {
      "buffer": 0,
      "byteOffset": 86248,
      "byteLength": 192,
      "target": 34962
    },
    {
      "buffer": 0,
      "byteOffset": 86440,
      "byteLength": 192,
      "target": 34962
    },
    {
      "buffer": 0,
      "byteOffset": 86632,
      "byteLength": 128,
      "target": 34962
    },
    {
      "buffer": 0,
      "byteOffset": 86760,
      "byteLength": 48,
      "target": 34963
    },
    {
      "buffer": 0,
      "byteOffset": 86808,
      "byteLength": 4176,
      "target": 34962
    },
    {
      "buffer": 0,
      "byteOffset": 90984,
      "byteLength": 4176,
      "target": 34962
    },
    {
      "buffer": 0,
      "byteOffset": 95160,
      "byteLength": 2784,
      "target": 34962
    },
    {
      "buffer": 0,
      "byteOffset": 97944,
      "byteLength": 696,
      "target": 34963
    },
    {
      "buffer": 0,
      "byteOffset": 98640,
      "byteLength": 96,
      "target": 34962
    },
    {
      "buffer": 0,
      "byteOffset": 98736,
      "byteLength": 96,
      "target": 34962
    },
    {
      "buffer": 0,
      "byteOffset": 98832,
      "byteLength": 64,
      "target": 34962
    },
    {
      "buffer": 0,
      "byteOffset": 98896,
      "byteLength": 24,
      "target": 34963
    },
    {
      "buffer": 0,
      "byteOffset": 98920,
      "byteLength": 192,
      "target": 34962
    },
    {
      "buffer": 0,
      "byteOffset": 99112,
      "byteLength": 192,
      "target": 34962
    },
    {
      "buffer": 0,
      "byteOffset": 99304,
      "byteLength": 128,
      "target": 34962
    },
    {
      "buffer": 0,
      "byteOffset": 99432,
      "byteLength": 48,
      "target": 34963
    },
    {
      "buffer": 0,
      "byteOffset": 99480,
      "byteLength": 96,
      "target": 34962
    },
    {
      "buffer": 0,
      "byteOffset": 99576,
      "byteLength": 96,
      "target": 34962
    },
    {
      "buffer": 0,
      "byteOffset": 99672,
      "byteLength": 64,
      "target": 34962
    },
    {
      "buffer": 0,
      "byteOffset": 99736,
      "byteLength": 24,
      "target": 34963
    },
    {
      "buffer": 0,
      "byteOffset": 99760,
      "byteLength": 192,
      "target": 34962
    },
    {
      "buffer": 0,
      "byteOffset": 99952,
      "byteLength": 192,
      "target": 34962
    },
    {
      "buffer": 0,
      "byteOffset": 100144,
      "byteLength": 128,
      "target": 34962
    },
    {
      "buffer": 0,
      "byteOffset": 100272,
      "byteLength": 48,
      "target": 34963
    },
    {
      "buffer": 0,
      "byteOffset": 100320,
      "byteLength": 3996,
      "target": 34962
    },
    {
      "buffer": 0,
      "byteOffset": 104316,
      "byteLength": 3996,
      "target": 34962
    },
    {
      "buffer": 0,
      "byteOffset": 108312,
      "byteLength": 2664,
      "target": 34962
    },
    {
      "buffer": 0,
      "byteOffset": 110976,
      "byteLength": 666,
      "target": 34963
    },
    {
      "buffer": 0,
      "byteOffset": 111644,
      "byteLength": 96,
      "target": 34962
    },
    {
      "buffer": 0,
      "byteOffset": 111740,
      "byteLength": 96,
      "target": 34962
    },
    {
      "buffer": 0,
      "byteOffset": 111836,
      "byteLength": 64,
      "target": 34962
    },
    {
      "buffer": 0,
      "byteOffset": 111900,
      "byteLength": 24,
      "target": 34963
    },
    {
      "buffer": 0,
      "byteOffset": 111924,
      "byteLength": 192,
      "target": 34962
    },
    {
      "buffer": 0,
      "byteOffset": 112116,
      "byteLength": 192,
      "target": 34962
    },
    {
      "buffer": 0,
      "byteOffset": 112308,
      "byteLength": 128,
      "target": 34962
    },
    {
      "buffer": 0,
      "byteOffset": 112436,
      "byteLength": 48,
      "target": 34963
    },
    {
      "buffer": 0,
      "byteOffset": 112484,
      "byteLength": 96,
      "target": 34962
    },
    {
      "buffer": 0,
      "byteOffset": 112580,
      "byteLength": 96,
      "target": 34962
    },
    {
      "buffer": 0,
      "byteOffset": 112676,
      "byteLength": 64,
      "target": 34962
    },
    {
      "buffer": 0,
      "byteOffset": 112740,
      "byteLength": 24,
      "target": 34963
    },
    {
      "buffer": 0,
      "byteOffset": 112764,
      "byteLength": 48,
      "target": 34962
    },
    {
      "buffer": 0,
      "byteOffset": 112812,
      "byteLength": 48,
      "target": 34962
    },
    {
      "buffer": 0,
      "byteOffset": 112860,
      "byteLength": 32,
      "target": 34962
    },
    {
      "buffer": 0,
      "byteOffset": 112892,
      "byteLength": 12,
      "target": 34963
    },
    {
      "buffer": 0,
      "byteOffset": 112904,
      "byteLength": 144,
      "target": 34962
    },
    {
      "buffer": 0,
      "byteOffset": 113048,
      "byteLength": 144,
      "target": 34962
    },
    {
      "buffer": 0,
      "byteOffset": 113192,
      "byteLength": 96,
      "target": 34962
    },
    {
      "buffer": 0,
      "byteOffset": 113288,
      "byteLength": 36,
      "target": 34963
    },
    {
      "buffer": 0,
      "byteOffset": 113324,
      "byteLength": 2916,
      "target": 34962
    },
    {
      "buffer": 0,
      "byteOffset": 116240,
      "byteLength": 2916,
      "target": 34962
    },
    {
      "buffer": 0,
      "byteOffset": 119156,
      "byteLength": 1944,
      "target": 34962
    },
    {
      "buffer": 0,
      "byteOffset": 121100,
      "byteLength": 486,
      "target": 34963
    },
    {
      "buffer": 0,
      "byteOffset": 121588,
      "byteLength": 360,
      "target": 34962
    },
    {
      "buffer": 0,
      "byteOffset": 121948,
      "byteLength": 360,
      "target": 34962
    },
    {
      "buffer": 0,
      "byteOffset": 122308,
      "byteLength": 240,
      "target": 34962
    },
    {
      "buffer": 0,
      "byteOffset": 122548,
      "byteLength": 60,
      "target": 34963
    },
    {
      "buffer": 0,
      "byteOffset": 122608,
      "byteLength": 96,
      "target": 34962
    },
    {
      "buffer": 0,
      "byteOffset": 122704,
      "byteLength": 96,
      "target": 34962
    },
    {
      "buffer": 0,
      "byteOffset": 122800,
      "byteLength": 64,
      "target": 34962
    },
    {
      "buffer": 0,
      "byteOffset": 122864,
      "byteLength": 24,
      "target": 34963
    },
    {
      "buffer": 0,
      "byteOffset": 122888,
      "byteLength": 48,
      "target": 34962
    },
    {
      "buffer": 0,
      "byteOffset": 122936,
      "byteLength": 48,
      "target": 34962
    },
    {
      "buffer": 0,
      "byteOffset": 122984,
      "byteLength": 32,
      "target": 34962
    },
    {
      "buffer": 0,
      "byteOffset": 123016,
      "byteLength": 12,
      "target": 34963
    },
    {
      "buffer": 0,
      "byteOffset": 123028,
      "byteLength": 144,
      "target": 34962
    },
    {
      "buffer": 0,
      "byteOffset": 123172,
      "byteLength": 144,
      "target": 34962
    },
    {
      "buffer": 0,
      "byteOffset": 123316,
      "byteLength": 96,
      "target": 34962
    },
    {
      "buffer": 0,
      "byteOffset": 123412,
      "byteLength": 36,
      "target": 34963
    },
    {
      "buffer": 0,
      "byteOffset": 123448,
      "byteLength": 1836,
      "target": 34962
    },
    {
      "buffer": 0,
      "byteOffset": 125284,
      "byteLength": 1836,
      "target": 34962
    },
    {
      "buffer": 0,
      "byteOffset": 127120,
      "byteLength": 1224,
      "target": 34962
    },
    {
      "buffer": 0,
      "byteOffset": 128344,
      "byteLength": 306,
      "target": 34963
    },
    {
      "buffer": 0,
      "byteOffset": 128652,
      "byteLength": 96,
      "target": 34962
    },
    {
      "buffer": 0,
      "byteOffset": 128748,
      "byteLength": 96,
      "target": 34962
    },
    {
      "buffer": 0,
      "byteOffset": 128844,
      "byteLength": 64,
      "target": 34962
    },
    {
      "buffer": 0,
      "byteOffset": 128908,
      "byteLength": 24,
      "target": 34963
    },
    {
      "buffer": 0,
      "byteOffset": 128932,
      "byteLength": 48,
      "target": 34962
    },
    {
      "buffer": 0,
      "byteOffset": 128980,
      "byteLength": 48,
      "target": 34962
    },
    {
      "buffer": 0,
      "byteOffset": 129028,
      "byteLength": 32,
      "target": 34962
    },
    {
      "buffer": 0,
      "byteOffset": 129060,
      "byteLength": 12,
      "target": 34963
    },
    {
      "buffer": 0,
      "byteOffset": 129072,
      "byteLength": 144,
      "target": 34962
    },
    {
      "buffer": 0,
      "byteOffset": 129216,
      "byteLength": 144,
      "target": 34962
    },
    {
      "buffer": 0,
      "byteOffset": 129360,
      "byteLength": 96,
      "target": 34962
    },
    {
      "buffer": 0,
      "byteOffset": 129456,
      "byteLength": 36,
      "target": 34963
    },
    {
      "buffer": 0,
      "byteOffset": 129492,
      "byteLength": 2808,
      "target": 34962
    },
    {
      "buffer": 0,
      "byteOffset": 132300,
      "byteLength": 2808,
      "target": 34962
    },
    {
      "buffer": 0,
      "byteOffset": 135108,
      "byteLength": 1872,
      "target": 34962
    },
    {
      "buffer": 0,
      "byteOffset": 136980,
      "byteLength": 468,
      "target": 34963
    },
    {
      "buffer": 0,
      "byteOffset": 137448,
      "byteLength": 360,
      "target": 34962
    },
    {
      "buffer": 0,
      "byteOffset": 137808,
      "byteLength": 360,
      "target": 34962
    },
    {
      "buffer": 0,
      "byteOffset": 138168,
      "byteLength": 240,
      "target": 34962
    },
    {
      "buffer": 0,
      "byteOffset": 138408,
      "byteLength": 60,
      "target": 34963
    },
    {
      "buffer": 0,
      "byteOffset": 138468,
      "byteLength": 96,
      "target": 34962
    },
    {
      "buffer": 0,
      "byteOffset": 138564,
      "byteLength": 96,
      "target": 34962
    },
    {
      "buffer": 0,
      "byteOffset": 138660,
      "byteLength": 64,
      "target": 34962
    },
    {
      "buffer": 0,
      "byteOffset": 138724,
      "byteLength": 24,
      "target": 34963
    },
    {
      "buffer": 0,
      "byteOffset": 138748,
      "byteLength": 48,
      "target": 34962
    },
    {
      "buffer": 0,
      "byteOffset": 138796,
      "byteLength": 48,
      "target": 34962
    },
    {
      "buffer": 0,
      "byteOffset": 138844,
      "byteLength": 32,
      "target": 34962
    },
    {
      "buffer": 0,
      "byteOffset": 138876,
      "byteLength": 12,
      "target": 34963
    },
    {
      "buffer": 0,
      "byteOffset": 138888,
      "byteLength": 144,
      "target": 34962
    },
    {
      "buffer": 0,
      "byteOffset": 139032,
      "byteLength": 144,
      "target": 34962
    },
    {
      "buffer": 0,
      "byteOffset": 139176,
      "byteLength": 96,
      "target": 34962
    },
    {
      "buffer": 0,
      "byteOffset": 139272,
      "byteLength": 36,
      "target": 34963
    },
    {
      "buffer": 0,
      "byteOffset": 139308,
      "byteLength": 1836,
      "target": 34962
    },
    {
      "buffer": 0,
      "byteOffset": 141144,
      "byteLength": 1836,
      "target": 34962
    },
    {
      "buffer": 0,
      "byteOffset": 142980,
      "byteLength": 1224,
      "target": 34962
    },
    {
      "buffer": 0,
      "byteOffset": 144204,
      "byteLength": 306,
      "target": 34963
    }
  ],
  "buffers": [
    {
      "uri": "Windmill_destructible.bin",
      "byteLength": 144510
    }
  ]
}
