{
  "accessors": [
    {
      "name": "ChickenCoop_Cube.015-Mesh_0_positions",
      "componentType": 5126,
      "count": 355,
      "min": [
        -0.7926340103149414,
        0.24583500623703003,
        -0.7926340103149414
      ],
      "max": [
        0.7926340103149414,
        1.7980350255966187,
        0.7926340103149414
      ],
      "type": "VEC3",
      "bufferView": 0,
      "byteOffset": 0
    },
    {
      "name": "ChickenCoop_Cube.015-Mesh_0_normals",
      "componentType": 5126,
      "count": 355,
      "min": [
        -1,
        -1,
        -1
      ],
      "max": [
        1,
        1,
        1
      ],
      "type": "VEC3",
      "bufferView": 1,
      "byteOffset": 0
    },
    {
      "name": "ChickenCoop_Cube.015-Mesh_0_indices",
      "componentType": 5123,
      "count": 762,
      "min": [
        0
      ],
      "max": [
        354
      ],
      "type": "SCALAR",
      "bufferView": 2,
      "byteOffset": 0
    },
    {
      "name": "ChickenCoop_Cube.015-Mesh_1_positions",
      "componentType": 5126,
      "count": 480,
      "min": [
        -0.7275030016899109,
        0.3204210102558136,
        -0.7212730050086975
      ],
      "max": [
        0.721439003944397,
        1.6596410274505615,
        0.7204599976539612
      ],
      "type": "VEC3",
      "bufferView": 0,
      "byteOffset": 4260
    },
    {
      "name": "ChickenCoop_Cube.015-Mesh_1_normals",
      "componentType": 5126,
      "count": 480,
      "min": [
        -1,
        0,
        -1
      ],
      "max": [
        1,
        0,
        1
      ],
      "type": "VEC3",
      "bufferView": 1,
      "byteOffset": 4260
    },
    {
      "name": "ChickenCoop_Cube.015-Mesh_1_indices",
      "componentType": 5123,
      "count": 720,
      "min": [
        0
      ],
      "max": [
        479
      ],
      "type": "SCALAR",
      "bufferView": 2,
      "byteOffset": 1524
    },
    {
      "name": "ChickenCoop_Cube.015-Mesh_2_positions",
      "componentType": 5126,
      "count": 452,
      "min": [
        -1.2025619745254517,
        -0.002964999992400408,
        -0.6530110239982605
      ],
      "max": [
        1.2046469449996948,
        0.5907959938049316,
        1.2060739994049072
      ],
      "type": "VEC3",
      "bufferView": 0,
      "byteOffset": 10020
    },
    {
      "name": "ChickenCoop_Cube.015-Mesh_2_normals",
      "componentType": 5126,
      "count": 452,
      "min": [
        -1,
        -1,
        -1
      ],
      "max": [
        1,
        1,
        1
      ],
      "type": "VEC3",
      "bufferView": 1,
      "byteOffset": 10020
    },
    {
      "name": "ChickenCoop_Cube.015-Mesh_2_indices",
      "componentType": 5123,
      "count": 804,
      "min": [
        0
      ],
      "max": [
        451
      ],
      "type": "SCALAR",
      "bufferView": 2,
      "byteOffset": 2964
    },
    {
      "name": "ChickenCoop_Cube.015-Mesh_3_positions",
      "componentType": 5126,
      "count": 157,
      "min": [
        -0.691428005695343,
        0.34689798951148987,
        -0.691428005695343
      ],
      "max": [
        0.691428005695343,
        1.635414958000183,
        0.691428005695343
      ],
      "type": "VEC3",
      "bufferView": 0,
      "byteOffset": 15444
    },
    {
      "name": "ChickenCoop_Cube.015-Mesh_3_normals",
      "componentType": 5126,
      "count": 157,
      "min": [
        -1,
        -1,
        -1
      ],
      "max": [
        1,
        1,
        1
      ],
      "type": "VEC3",
      "bufferView": 1,
      "byteOffset": 15444
    },
    {
      "name": "ChickenCoop_Cube.015-Mesh_3_indices",
      "componentType": 5123,
      "count": 354,
      "min": [
        0
      ],
      "max": [
        156
      ],
      "type": "SCALAR",
      "bufferView": 2,
      "byteOffset": 4572
    },
    {
      "name": "ChickenCoop_Cube.015-Mesh_4_positions",
      "componentType": 5126,
      "count": 108,
      "min": [
        -0.8841320276260376,
        1.1373549699783325,
        -0.9479219913482666
      ],
      "max": [
        0.8841320276260376,
        1.8478939533233643,
        0.9635199904441833
      ],
      "type": "VEC3",
      "bufferView": 0,
      "byteOffset": 17328
    },
    {
      "name": "ChickenCoop_Cube.015-Mesh_4_normals",
      "componentType": 5126,
      "count": 108,
      "min": [
        -0.9304972290992737,
        -0.9505367875099182,
        -1
      ],
      "max": [
        0.9304972290992737,
        0.9006191492080688,
        1
      ],
      "type": "VEC3",
      "bufferView": 1,
      "byteOffset": 17328
    },
    {
      "name": "ChickenCoop_Cube.015-Mesh_4_indices",
      "componentType": 5123,
      "count": 204,
      "min": [
        0
      ],
      "max": [
        107
      ],
      "type": "SCALAR",
      "bufferView": 2,
      "byteOffset": 5280
    }
  ],
  "asset": {
    "generator": "obj2gltf",
    "version": "2.0"
  },
  "buffers": [
    {
      "name": "ChickenCoop",
      "byteLength": 42936,
      "uri": "ChickenCoop.bin"
    }
  ],
  "bufferViews": [
    {
      "name": "bufferView_0",
      "buffer": 0,
      "byteLength": 18624,
      "byteOffset": 0,
      "byteStride": 12,
      "target": 34962
    },
    {
      "name": "bufferView_1",
      "buffer": 0,
      "byteLength": 18624,
      "byteOffset": 18624,
      "byteStride": 12,
      "target": 34962
    },
    {
      "name": "bufferView_2",
      "buffer": 0,
      "byteLength": 5688,
      "byteOffset": 37248,
      "target": 34963
    }
  ],
  "materials": [
    {
      "name": "White",
      "pbrMetallicRoughness": {
        "baseColorFactor": [
          0.64,
          0.64,
          0.64,
          1
        ],
        "metallicFactor": 0,
        "roughnessFactor": 0.903921569
      },
      "emissiveFactor": [
        0,
        0,
        0
      ],
      "alphaMode": "OPAQUE",
      "doubleSided": true
    },
    {
      "name": "LightRed",
      "pbrMetallicRoughness": {
        "baseColorFactor": [
          0.273903,
          0.056039,
          0.041967,
          1
        ],
        "metallicFactor": 0,
        "roughnessFactor": 0.903921569
      },
      "emissiveFactor": [
        0,
        0,
        0
      ],
      "alphaMode": "OPAQUE",
      "doubleSided": true
    },
    {
      "name": "Brown",
      "pbrMetallicRoughness": {
        "baseColorFactor": [
          0.224804,
          0.076709,
          0.037364,
          1
        ],
        "metallicFactor": 0,
        "roughnessFactor": 0.903921569
      },
      "emissiveFactor": [
        0,
        0,
        0
      ],
      "alphaMode": "OPAQUE",
      "doubleSided": true
    },
    {
      "name": "DarkRed",
      "pbrMetallicRoughness": {
        "baseColorFactor": [
          0.202353,
          0.04252,
          0.032067,
          1
        ],
        "metallicFactor": 0,
        "roughnessFactor": 0.903921569
      },
      "emissiveFactor": [
        0,
        0,
        0
      ],
      "alphaMode": "OPAQUE",
      "doubleSided": true
    },
    {
      "name": "RoofBlack",
      "pbrMetallicRoughness": {
        "baseColorFactor": [
          0.078802,
          0.078802,
          0.078802,
          1
        ],
        "metallicFactor": 0,
        "roughnessFactor": 0.903921569
      },
      "emissiveFactor": [
        0,
        0,
        0
      ],
      "alphaMode": "OPAQUE",
      "doubleSided": true
    }
  ],
  "meshes": [
    {
      "name": "ChickenCoop_Cube.015-Mesh",
      "primitives": [
        {
          "attributes": {
            "POSITION": 0,
            "NORMAL": 1
          },
          "indices": 2,
          "material": 0,
          "mode": 4
        },
        {
          "attributes": {
            "POSITION": 3,
            "NORMAL": 4
          },
          "indices": 5,
          "material": 1,
          "mode": 4
        },
        {
          "attributes": {
            "POSITION": 6,
            "NORMAL": 7
          },
          "indices": 8,
          "material": 2,
          "mode": 4
        },
        {
          "attributes": {
            "POSITION": 9,
            "NORMAL": 10
          },
          "indices": 11,
          "material": 3,
          "mode": 4
        },
        {
          "attributes": {
            "POSITION": 12,
            "NORMAL": 13
          },
          "indices": 14,
          "material": 4,
          "mode": 4
        }
      ]
    }
  ],
  "nodes": [
    {
      "name": "ChickenCoop_Cube.015",
      "mesh": 0
    }
  ],
  "scene": 0,
  "scenes": [
    {
      "nodes": [
        0
      ]
    }
  ]
}
