{
  "accessors": [
    {
      "name": "Small_Barn_Cube.013-Mesh_0_positions",
      "componentType": 5126,
      "count": 376,
      "min": [
        -2.798258066177368,
        0.00016199999663513154,
        -2.730415105819702
      ],
      "max": [
        2.79831600189209,
        4.6267409324646,
        2.7735960483551025
      ],
      "type": "VEC3",
      "bufferView": 0,
      "byteOffset": 0
    },
    {
      "name": "Small_Barn_Cube.013-Mesh_0_normals",
      "componentType": 5126,
      "count": 376,
      "min": [
        -1,
        -1,
        -1
      ],
      "max": [
        1,
        1,
        1
      ],
      "type": "VEC3",
      "bufferView": 1,
      "byteOffset": 0
    },
    {
      "name": "Small_Barn_Cube.013-Mesh_0_indices",
      "componentType": 5123,
      "count": 888,
      "min": [
        0
      ],
      "max": [
        375
      ],
      "type": "SCALAR",
      "bufferView": 2,
      "byteOffset": 0
    },
    {
      "name": "Small_Barn_Cube.013-Mesh_1_positions",
      "componentType": 5126,
      "count": 717,
      "min": [
        -2.8267769813537598,
        0.00016199999663513154,
        -2.785079002380371
      ],
      "max": [
        2.826836109161377,
        4.622564792633057,
        2.783639907836914
      ],
      "type": "VEC3",
      "bufferView": 0,
      "byteOffset": 4512
    },
    {
      "name": "Small_Barn_Cube.013-Mesh_1_normals",
      "componentType": 5126,
      "count": 717,
      "min": [
        -1,
        -1,
        -1
      ],
      "max": [
        1,
        1,
        1
      ],
      "type": "VEC3",
      "bufferView": 1,
      "byteOffset": 4512
    },
    {
      "name": "Small_Barn_Cube.013-Mesh_1_indices",
      "componentType": 5123,
      "count": 1518,
      "min": [
        0
      ],
      "max": [
        716
      ],
      "type": "SCALAR",
      "bufferView": 2,
      "byteOffset": 1776
    },
    {
      "name": "Small_Barn_Cube.013-Mesh_2_positions",
      "componentType": 5126,
      "count": 1118,
      "min": [
        -2.7660579681396484,
        0.1716350018978119,
        -2.648888111114502
      ],
      "max": [
        2.7495388984680176,
        4.439341068267822,
        2.647449016571045
      ],
      "type": "VEC3",
      "bufferView": 0,
      "byteOffset": 13116
    },
    {
      "name": "Small_Barn_Cube.013-Mesh_2_normals",
      "componentType": 5126,
      "count": 1118,
      "min": [
        -1,
        -1,
        -1
      ],
      "max": [
        1,
        1,
        1
      ],
      "type": "VEC3",
      "bufferView": 1,
      "byteOffset": 13116
    },
    {
      "name": "Small_Barn_Cube.013-Mesh_2_indices",
      "componentType": 5123,
      "count": 1854,
      "min": [
        0
      ],
      "max": [
        1117
      ],
      "type": "SCALAR",
      "bufferView": 2,
      "byteOffset": 4812
    },
    {
      "name": "Small_Barn_Cube.013-Mesh_3_positions",
      "componentType": 5126,
      "count": 222,
      "min": [
        -3.0909900665283203,
        2.1372110843658447,
        -3.112062931060791
      ],
      "max": [
        2.987729072570801,
        4.961273193359375,
        3.161823034286499
      ],
      "type": "VEC3",
      "bufferView": 0,
      "byteOffset": 26532
    },
    {
      "name": "Small_Barn_Cube.013-Mesh_3_normals",
      "componentType": 5126,
      "count": 222,
      "min": [
        -0.9999942183494568,
        -0.9237412214279175,
        -1
      ],
      "max": [
        0.9999994039535522,
        0.9031117558479309,
        1
      ],
      "type": "VEC3",
      "bufferView": 1,
      "byteOffset": 26532
    },
    {
      "name": "Small_Barn_Cube.013-Mesh_3_indices",
      "componentType": 5123,
      "count": 444,
      "min": [
        0
      ],
      "max": [
        221
      ],
      "type": "SCALAR",
      "bufferView": 2,
      "byteOffset": 8520
    },
    {
      "name": "Small_Barn_Door_Cube.008-Mesh_0_positions",
      "componentType": 5126,
      "count": 28,
      "min": [
        -0.9995030164718628,
        0.34727001190185547,
        2.6557440757751465
      ],
      "max": [
        0.20369400084018707,
        1.7503310441970825,
        2.6557440757751465
      ],
      "type": "VEC3",
      "bufferView": 0,
      "byteOffset": 29196
    },
    {
      "name": "Small_Barn_Door_Cube.008-Mesh_0_normals",
      "componentType": 5126,
      "count": 28,
      "min": [
        0,
        0,
        1
      ],
      "max": [
        0,
        0,
        1
      ],
      "type": "VEC3",
      "bufferView": 1,
      "byteOffset": 29196
    },
    {
      "name": "Small_Barn_Door_Cube.008-Mesh_0_indices",
      "componentType": 5123,
      "count": 72,
      "min": [
        0
      ],
      "max": [
        27
      ],
      "type": "SCALAR",
      "bufferView": 2,
      "byteOffset": 9408
    },
    {
      "name": "Small_Barn_Door_Cube.008-Mesh_1_positions",
      "componentType": 5126,
      "count": 186,
      "min": [
        -1.1244640350341797,
        0.20155200362205505,
        2.581526041030884
      ],
      "max": [
        0.3286550045013428,
        1.8960490226745605,
        2.7497780323028564
      ],
      "type": "VEC3",
      "bufferView": 0,
      "byteOffset": 29532
    },
    {
      "name": "Small_Barn_Door_Cube.008-Mesh_1_normals",
      "componentType": 5126,
      "count": 186,
      "min": [
        -1,
        -1,
        -1
      ],
      "max": [
        1,
        1,
        1
      ],
      "type": "VEC3",
      "bufferView": 1,
      "byteOffset": 29532
    },
    {
      "name": "Small_Barn_Door_Cube.008-Mesh_1_indices",
      "componentType": 5123,
      "count": 528,
      "min": [
        0
      ],
      "max": [
        185
      ],
      "type": "SCALAR",
      "bufferView": 2,
      "byteOffset": 9552
    },
    {
      "name": "Small_Barn_Door_Cube.008-Mesh_2_positions",
      "componentType": 5126,
      "count": 64,
      "min": [
        -1.00478196144104,
        0.242684006690979,
        2.64042592048645
      ],
      "max": [
        0.22079500555992126,
        1.776252031326294,
        2.6941280364990234
      ],
      "type": "VEC3",
      "bufferView": 0,
      "byteOffset": 31764
    },
    {
      "name": "Small_Barn_Door_Cube.008-Mesh_2_normals",
      "componentType": 5126,
      "count": 64,
      "min": [
        -1,
        0,
        -1
      ],
      "max": [
        1,
        0,
        1
      ],
      "type": "VEC3",
      "bufferView": 1,
      "byteOffset": 31764
    },
    {
      "name": "Small_Barn_Door_Cube.008-Mesh_2_indices",
      "componentType": 5123,
      "count": 96,
      "min": [
        0
      ],
      "max": [
        63
      ],
      "type": "SCALAR",
      "bufferView": 2,
      "byteOffset": 10608
    },
    {
      "name": "SmallBarn_Window_Cube.023-Mesh_0_positions",
      "componentType": 5126,
      "count": 31,
      "min": [
        0.5724660158157349,
        2.633178949356079,
        2.8435840606689453
      ],
      "max": [
        0.9696369767189026,
        3.559359073638916,
        2.858431100845337
      ],
      "type": "VEC3",
      "bufferView": 0,
      "byteOffset": 32532
    },
    {
      "name": "SmallBarn_Window_Cube.023-Mesh_0_normals",
      "componentType": 5126,
      "count": 31,
      "min": [
        -0.0374000146985054,
        0,
        0.9993003606796265
      ],
      "max": [
        -0.03730015456676483,
        0,
        0.9993041157722473
      ],
      "type": "VEC3",
      "bufferView": 1,
      "byteOffset": 32532
    },
    {
      "name": "SmallBarn_Window_Cube.023-Mesh_0_indices",
      "componentType": 5123,
      "count": 90,
      "min": [
        0
      ],
      "max": [
        30
      ],
      "type": "SCALAR",
      "bufferView": 2,
      "byteOffset": 10800
    },
    {
      "name": "SmallBarn_Window_Cube.023-Mesh_1_positions",
      "componentType": 5126,
      "count": 170,
      "min": [
        0.4867990016937256,
        2.5561649799346924,
        2.7863850593566895
      ],
      "max": [
        1.05561101436615,
        3.6363730430603027,
        2.9022650718688965
      ],
      "type": "VEC3",
      "bufferView": 0,
      "byteOffset": 32904
    },
    {
      "name": "SmallBarn_Window_Cube.023-Mesh_1_normals",
      "componentType": 5126,
      "count": 170,
      "min": [
        -0.9997354745864868,
        -1,
        -0.9993003606796265
      ],
      "max": [
        0.9997354745864868,
        1,
        0.9993003606796265
      ],
      "type": "VEC3",
      "bufferView": 1,
      "byteOffset": 32904
    },
    {
      "name": "SmallBarn_Window_Cube.023-Mesh_1_indices",
      "componentType": 5123,
      "count": 474,
      "min": [
        0
      ],
      "max": [
        169
      ],
      "type": "SCALAR",
      "bufferView": 2,
      "byteOffset": 10980
    },
    {
      "name": "SmallBarn_Window2_Cube.022-Mesh_0_positions",
      "componentType": 5126,
      "count": 28,
      "min": [
        -0.9493659734725952,
        2.633178949356079,
        2.849975109100342
      ],
      "max": [
        -0.5603899955749512,
        3.559359073638916,
        2.8714940547943115
      ],
      "type": "VEC3",
      "bufferView": 0,
      "byteOffset": 34944
    },
    {
      "name": "SmallBarn_Window2_Cube.022-Mesh_0_normals",
      "componentType": 5126,
      "count": 28,
      "min": [
        0.05519863963127136,
        0,
        0.9984753727912903
      ],
      "max": [
        0.05519863963127136,
        0,
        0.9984753727912903
      ],
      "type": "VEC3",
      "bufferView": 1,
      "byteOffset": 34944
    },
    {
      "name": "SmallBarn_Window2_Cube.022-Mesh_0_indices",
      "componentType": 5123,
      "count": 90,
      "min": [
        0
      ],
      "max": [
        27
      ],
      "type": "SCALAR",
      "bufferView": 2,
      "byteOffset": 11928
    },
    {
      "name": "SmallBarn_Window2_Cube.022-Mesh_1_positions",
      "componentType": 5126,
      "count": 164,
      "min": [
        -1.034559965133667,
        2.5561649799346924,
        2.791382074356079
      ],
      "max": [
        -0.47574201226234436,
        3.6363730430603027,
        2.916728973388672
      ],
      "type": "VEC3",
      "bufferView": 0,
      "byteOffset": 35280
    },
    {
      "name": "SmallBarn_Window2_Cube.022-Mesh_1_normals",
      "componentType": 5126,
      "count": 164,
      "min": [
        -0.9991633296012878,
        -1,
        -0.9984753727912903
      ],
      "max": [
        0.9991633296012878,
        1,
        0.9984753727912903
      ],
      "type": "VEC3",
      "bufferView": 1,
      "byteOffset": 35280
    },
    {
      "name": "SmallBarn_Window2_Cube.022-Mesh_1_indices",
      "componentType": 5123,
      "count": 474,
      "min": [
        0
      ],
      "max": [
        163
      ],
      "type": "SCALAR",
      "bufferView": 2,
      "byteOffset": 12108
    }
  ],
  "asset": {
    "generator": "obj2gltf",
    "version": "2.0"
  },
  "buffers": [
    {
      "name": "SmallBarn",
      "byteLength": 87552,
      "uri": "SmallBarn.bin"
    }
  ],
  "bufferViews": [
    {
      "name": "bufferView_0",
      "buffer": 0,
      "byteLength": 37248,
      "byteOffset": 0,
      "byteStride": 12,
      "target": 34962
    },
    {
      "name": "bufferView_1",
      "buffer": 0,
      "byteLength": 37248,
      "byteOffset": 37248,
      "byteStride": 12,
      "target": 34962
    },
    {
      "name": "bufferView_2",
      "buffer": 0,
      "byteLength": 13056,
      "byteOffset": 74496,
      "target": 34963
    }
  ],
  "materials": [
    {
      "name": "DarkRed",
      "pbrMetallicRoughness": {
        "baseColorFactor": [
          0.202353,
          0.04252,
          0.032067,
          1
        ],
        "metallicFactor": 0,
        "roughnessFactor": 0.903921569
      },
      "emissiveFactor": [
        0,
        0,
        0
      ],
      "alphaMode": "OPAQUE",
      "doubleSided": true
    },
    {
      "name": "White",
      "pbrMetallicRoughness": {
        "baseColorFactor": [
          0.64,
          0.64,
          0.64,
          1
        ],
        "metallicFactor": 0,
        "roughnessFactor": 0.903921569
      },
      "emissiveFactor": [
        0,
        0,
        0
      ],
      "alphaMode": "OPAQUE",
      "doubleSided": true
    },
    {
      "name": "LightRed",
      "pbrMetallicRoughness": {
        "baseColorFactor": [
          0.273903,
          0.056039,
          0.041967,
          1
        ],
        "metallicFactor": 0,
        "roughnessFactor": 0.903921569
      },
      "emissiveFactor": [
        0,
        0,
        0
      ],
      "alphaMode": "OPAQUE",
      "doubleSided": true
    },
    {
      "name": "RoofBlack",
      "pbrMetallicRoughness": {
        "baseColorFactor": [
          0.078802,
          0.078802,
          0.078802,
          1
        ],
        "metallicFactor": 0,
        "roughnessFactor": 0.903921569
      },
      "emissiveFactor": [
        0,
        0,
        0
      ],
      "alphaMode": "OPAQUE",
      "doubleSided": true
    }
  ],
  "meshes": [
    {
      "name": "Small_Barn_Cube.013-Mesh",
      "primitives": [
        {
          "attributes": {
            "POSITION": 0,
            "NORMAL": 1
          },
          "indices": 2,
          "material": 0,
          "mode": 4
        },
        {
          "attributes": {
            "POSITION": 3,
            "NORMAL": 4
          },
          "indices": 5,
          "material": 1,
          "mode": 4
        },
        {
          "attributes": {
            "POSITION": 6,
            "NORMAL": 7
          },
          "indices": 8,
          "material": 2,
          "mode": 4
        },
        {
          "attributes": {
            "POSITION": 9,
            "NORMAL": 10
          },
          "indices": 11,
          "material": 3,
          "mode": 4
        }
      ]
    },
    {
      "name": "Small_Barn_Door_Cube.008-Mesh",
      "primitives": [
        {
          "attributes": {
            "POSITION": 12,
            "NORMAL": 13
          },
          "indices": 14,
          "material": 0,
          "mode": 4
        },
        {
          "attributes": {
            "POSITION": 15,
            "NORMAL": 16
          },
          "indices": 17,
          "material": 1,
          "mode": 4
        },
        {
          "attributes": {
            "POSITION": 18,
            "NORMAL": 19
          },
          "indices": 20,
          "material": 2,
          "mode": 4
        }
      ]
    },
    {
      "name": "SmallBarn_Window_Cube.023-Mesh",
      "primitives": [
        {
          "attributes": {
            "POSITION": 21,
            "NORMAL": 22
          },
          "indices": 23,
          "material": 2,
          "mode": 4
        },
        {
          "attributes": {
            "POSITION": 24,
            "NORMAL": 25
          },
          "indices": 26,
          "material": 1,
          "mode": 4
        }
      ]
    },
    {
      "name": "SmallBarn_Window2_Cube.022-Mesh",
      "primitives": [
        {
          "attributes": {
            "POSITION": 27,
            "NORMAL": 28
          },
          "indices": 29,
          "material": 2,
          "mode": 4
        },
        {
          "attributes": {
            "POSITION": 30,
            "NORMAL": 31
          },
          "indices": 32,
          "material": 1,
          "mode": 4
        }
      ]
    }
  ],
  "nodes": [
    {
      "name": "Small_Barn_Cube.013",
      "mesh": 0
    },
    {
      "name": "Small_Barn_Door_Cube.008",
      "mesh": 1
    },
    {
      "name": "SmallBarn_Window_Cube.023",
      "mesh": 2
    },
    {
      "name": "SmallBarn_Window2_Cube.022",
      "mesh": 3
    }
  ],
  "scene": 0,
  "scenes": [
    {
      "nodes": [
        0,
        1,
        2,
        3
      ]
    }
  ]
}
