{
  "asset": {
    "version": "2.0",
    "generator": "Holesy Imported Building Converter 1.0.0",
    "extras": {
      "packId": "harvest-county-quaternius",
      "modelId": "harvest-small-barn",
      "sourceAsset": "SmallBarn.gltf",
      "sourceSha256": "6fe3a4081b6d278bc24edff8cb9879d6622c63acda8fd8106891257f6442d563"
    }
  },
  "scene": 0,
  "scenes": [
    {
      "name": "Holesy Destructible Building",
      "nodes": [
        8
      ]
    }
  ],
  "nodes": [
    {
      "name": "block_f0_r0_c0",
      "mesh": 0,
      "translation": [
        -2.125,
        1.6803558981028197,
        -2.125
      ],
      "extras": {
        "holesyBlock": true,
        "floor": 0,
        "row": 0,
        "col": 0,
        "closedFaces": 6,
        "collision": "box",
        "blockWidth": 4.25,
        "blockHeight": 3.3607117962056394,
        "blockDepth": 4.25,
        "authenticSurfaceTriangles": 315
      }
    },
    {
      "name": "block_f0_r0_c1",
      "mesh": 1,
      "translation": [
        2.125,
        1.6803558981028197,
        -2.125
      ],
      "extras": {
        "holesyBlock": true,
        "floor": 0,
        "row": 0,
        "col": 1,
        "closedFaces": 6,
        "collision": "box",
        "blockWidth": 4.25,
        "blockHeight": 3.3607117962056394,
        "blockDepth": 4.25,
        "authenticSurfaceTriangles": 379
      }
    },
    {
      "name": "block_f0_r1_c0",
      "mesh": 2,
      "translation": [
        -2.125,
        1.6803558981028197,
        2.125
      ],
      "extras": {
        "holesyBlock": true,
        "floor": 0,
        "row": 1,
        "col": 0,
        "closedFaces": 6,
        "collision": "box",
        "blockWidth": 4.25,
        "blockHeight": 3.3607117962056394,
        "blockDepth": 4.25,
        "authenticSurfaceTriangles": 565
      }
    },
    {
      "name": "block_f0_r1_c1",
      "mesh": 3,
      "translation": [
        2.125,
        1.6803558981028197,
        2.125
      ],
      "extras": {
        "holesyBlock": true,
        "floor": 0,
        "row": 1,
        "col": 1,
        "closedFaces": 6,
        "collision": "box",
        "blockWidth": 4.25,
        "blockHeight": 3.3607117962056394,
        "blockDepth": 4.25,
        "authenticSurfaceTriangles": 504
      }
    },
    {
      "name": "block_f1_r0_c0",
      "mesh": 4,
      "translation": [
        -2.125,
        5.04106769430846,
        -2.125
      ],
      "extras": {
        "holesyBlock": true,
        "floor": 1,
        "row": 0,
        "col": 0,
        "closedFaces": 6,
        "collision": "box",
        "blockWidth": 4.25,
        "blockHeight": 3.3607117962056394,
        "blockDepth": 4.25,
        "authenticSurfaceTriangles": 280
      }
    },
    {
      "name": "block_f1_r0_c1",
      "mesh": 5,
      "translation": [
        2.125,
        5.04106769430846,
        -2.125
      ],
      "extras": {
        "holesyBlock": true,
        "floor": 1,
        "row": 0,
        "col": 1,
        "closedFaces": 6,
        "collision": "box",
        "blockWidth": 4.25,
        "blockHeight": 3.3607117962056394,
        "blockDepth": 4.25,
        "authenticSurfaceTriangles": 357
      }
    },
    {
      "name": "block_f1_r1_c0",
      "mesh": 6,
      "translation": [
        -2.125,
        5.04106769430846,
        2.125
      ],
      "extras": {
        "holesyBlock": true,
        "floor": 1,
        "row": 1,
        "col": 0,
        "closedFaces": 6,
        "collision": "box",
        "blockWidth": 4.25,
        "blockHeight": 3.3607117962056394,
        "blockDepth": 4.25,
        "authenticSurfaceTriangles": 457
      }
    },
    {
      "name": "block_f1_r1_c1",
      "mesh": 7,
      "translation": [
        2.125,
        5.04106769430846,
        2.125
      ],
      "extras": {
        "holesyBlock": true,
        "floor": 1,
        "row": 1,
        "col": 1,
        "closedFaces": 6,
        "collision": "box",
        "blockWidth": 4.25,
        "blockHeight": 3.3607117962056394,
        "blockDepth": 4.25,
        "authenticSurfaceTriangles": 544
      }
    },
    {
      "name": "harvest-small-barn_destructible",
      "children": [
        0,
        1,
        2,
        3,
        4,
        5,
        6,
        7
      ],
      "extras": {
        "holesyDestructible": true,
        "recipeVersion": "1.0.0"
      }
    }
  ],
  "meshes": [
    {
      "name": "solid_block_mesh_0",
      "primitives": [
        {
          "extras": {
            "holesyCoreSurface": true,
            "holesySurfaceGroup": "facade"
          },
          "attributes": {
            "POSITION": 0,
            "NORMAL": 1,
            "TEXCOORD_0": 2
          },
          "indices": 3,
          "material": 0,
          "mode": 4
        },
        {
          "extras": {
            "holesyCoreSurface": true,
            "holesySurfaceGroup": "interior"
          },
          "attributes": {
            "POSITION": 4,
            "NORMAL": 5,
            "TEXCOORD_0": 6
          },
          "indices": 7,
          "material": 0,
          "mode": 4
        },
        {
          "extras": {
            "holesyAuthenticSurface": true
          },
          "attributes": {
            "POSITION": 8,
            "NORMAL": 9,
            "TEXCOORD_0": 10
          },
          "indices": 11,
          "material": 0,
          "mode": 4
        },
        {
          "extras": {
            "holesyAuthenticSurface": true
          },
          "attributes": {
            "POSITION": 12,
            "NORMAL": 13,
            "TEXCOORD_0": 14
          },
          "indices": 15,
          "material": 1,
          "mode": 4
        },
        {
          "extras": {
            "holesyAuthenticSurface": true
          },
          "attributes": {
            "POSITION": 16,
            "NORMAL": 17,
            "TEXCOORD_0": 18
          },
          "indices": 19,
          "material": 2,
          "mode": 4
        },
        {
          "extras": {
            "holesyAuthenticSurface": true
          },
          "attributes": {
            "POSITION": 20,
            "NORMAL": 21,
            "TEXCOORD_0": 22
          },
          "indices": 23,
          "material": 3,
          "mode": 4
        }
      ]
    },
    {
      "name": "solid_block_mesh_1",
      "primitives": [
        {
          "extras": {
            "holesyCoreSurface": true,
            "holesySurfaceGroup": "facade"
          },
          "attributes": {
            "POSITION": 24,
            "NORMAL": 25,
            "TEXCOORD_0": 26
          },
          "indices": 27,
          "material": 0,
          "mode": 4
        },
        {
          "extras": {
            "holesyCoreSurface": true,
            "holesySurfaceGroup": "interior"
          },
          "attributes": {
            "POSITION": 28,
            "NORMAL": 29,
            "TEXCOORD_0": 30
          },
          "indices": 31,
          "material": 0,
          "mode": 4
        },
        {
          "extras": {
            "holesyAuthenticSurface": true
          },
          "attributes": {
            "POSITION": 32,
            "NORMAL": 33,
            "TEXCOORD_0": 34
          },
          "indices": 35,
          "material": 0,
          "mode": 4
        },
        {
          "extras": {
            "holesyAuthenticSurface": true
          },
          "attributes": {
            "POSITION": 36,
            "NORMAL": 37,
            "TEXCOORD_0": 38
          },
          "indices": 39,
          "material": 1,
          "mode": 4
        },
        {
          "extras": {
            "holesyAuthenticSurface": true
          },
          "attributes": {
            "POSITION": 40,
            "NORMAL": 41,
            "TEXCOORD_0": 42
          },
          "indices": 43,
          "material": 2,
          "mode": 4
        },
        {
          "extras": {
            "holesyAuthenticSurface": true
          },
          "attributes": {
            "POSITION": 44,
            "NORMAL": 45,
            "TEXCOORD_0": 46
          },
          "indices": 47,
          "material": 3,
          "mode": 4
        }
      ]
    },
    {
      "name": "solid_block_mesh_2",
      "primitives": [
        {
          "extras": {
            "holesyCoreSurface": true,
            "holesySurfaceGroup": "facade"
          },
          "attributes": {
            "POSITION": 48,
            "NORMAL": 49,
            "TEXCOORD_0": 50
          },
          "indices": 51,
          "material": 0,
          "mode": 4
        },
        {
          "extras": {
            "holesyCoreSurface": true,
            "holesySurfaceGroup": "interior"
          },
          "attributes": {
            "POSITION": 52,
            "NORMAL": 53,
            "TEXCOORD_0": 54
          },
          "indices": 55,
          "material": 0,
          "mode": 4
        },
        {
          "extras": {
            "holesyAuthenticSurface": true
          },
          "attributes": {
            "POSITION": 56,
            "NORMAL": 57,
            "TEXCOORD_0": 58
          },
          "indices": 59,
          "material": 0,
          "mode": 4
        },
        {
          "extras": {
            "holesyAuthenticSurface": true
          },
          "attributes": {
            "POSITION": 60,
            "NORMAL": 61,
            "TEXCOORD_0": 62
          },
          "indices": 63,
          "material": 1,
          "mode": 4
        },
        {
          "extras": {
            "holesyAuthenticSurface": true
          },
          "attributes": {
            "POSITION": 64,
            "NORMAL": 65,
            "TEXCOORD_0": 66
          },
          "indices": 67,
          "material": 2,
          "mode": 4
        },
        {
          "extras": {
            "holesyAuthenticSurface": true
          },
          "attributes": {
            "POSITION": 68,
            "NORMAL": 69,
            "TEXCOORD_0": 70
          },
          "indices": 71,
          "material": 3,
          "mode": 4
        }
      ]
    },
    {
      "name": "solid_block_mesh_3",
      "primitives": [
        {
          "extras": {
            "holesyCoreSurface": true,
            "holesySurfaceGroup": "facade"
          },
          "attributes": {
            "POSITION": 72,
            "NORMAL": 73,
            "TEXCOORD_0": 74
          },
          "indices": 75,
          "material": 0,
          "mode": 4
        },
        {
          "extras": {
            "holesyCoreSurface": true,
            "holesySurfaceGroup": "interior"
          },
          "attributes": {
            "POSITION": 76,
            "NORMAL": 77,
            "TEXCOORD_0": 78
          },
          "indices": 79,
          "material": 0,
          "mode": 4
        },
        {
          "extras": {
            "holesyAuthenticSurface": true
          },
          "attributes": {
            "POSITION": 80,
            "NORMAL": 81,
            "TEXCOORD_0": 82
          },
          "indices": 83,
          "material": 0,
          "mode": 4
        },
        {
          "extras": {
            "holesyAuthenticSurface": true
          },
          "attributes": {
            "POSITION": 84,
            "NORMAL": 85,
            "TEXCOORD_0": 86
          },
          "indices": 87,
          "material": 1,
          "mode": 4
        },
        {
          "extras": {
            "holesyAuthenticSurface": true
          },
          "attributes": {
            "POSITION": 88,
            "NORMAL": 89,
            "TEXCOORD_0": 90
          },
          "indices": 91,
          "material": 2,
          "mode": 4
        },
        {
          "extras": {
            "holesyAuthenticSurface": true
          },
          "attributes": {
            "POSITION": 92,
            "NORMAL": 93,
            "TEXCOORD_0": 94
          },
          "indices": 95,
          "material": 3,
          "mode": 4
        }
      ]
    },
    {
      "name": "solid_block_mesh_4",
      "primitives": [
        {
          "extras": {
            "holesyCoreSurface": true,
            "holesySurfaceGroup": "facade"
          },
          "attributes": {
            "POSITION": 96,
            "NORMAL": 97,
            "TEXCOORD_0": 98
          },
          "indices": 99,
          "material": 0,
          "mode": 4
        },
        {
          "extras": {
            "holesyCoreSurface": true,
            "holesySurfaceGroup": "roof"
          },
          "attributes": {
            "POSITION": 100,
            "NORMAL": 101,
            "TEXCOORD_0": 102
          },
          "indices": 103,
          "material": 3,
          "mode": 4
        },
        {
          "extras": {
            "holesyCoreSurface": true,
            "holesySurfaceGroup": "interior"
          },
          "attributes": {
            "POSITION": 104,
            "NORMAL": 105,
            "TEXCOORD_0": 106
          },
          "indices": 107,
          "material": 0,
          "mode": 4
        },
        {
          "extras": {
            "holesyAuthenticSurface": true
          },
          "attributes": {
            "POSITION": 108,
            "NORMAL": 109,
            "TEXCOORD_0": 110
          },
          "indices": 111,
          "material": 0,
          "mode": 4
        },
        {
          "extras": {
            "holesyAuthenticSurface": true
          },
          "attributes": {
            "POSITION": 112,
            "NORMAL": 113,
            "TEXCOORD_0": 114
          },
          "indices": 115,
          "material": 1,
          "mode": 4
        },
        {
          "extras": {
            "holesyAuthenticSurface": true
          },
          "attributes": {
            "POSITION": 116,
            "NORMAL": 117,
            "TEXCOORD_0": 118
          },
          "indices": 119,
          "material": 2,
          "mode": 4
        },
        {
          "extras": {
            "holesyAuthenticSurface": true
          },
          "attributes": {
            "POSITION": 120,
            "NORMAL": 121,
            "TEXCOORD_0": 122
          },
          "indices": 123,
          "material": 3,
          "mode": 4
        }
      ]
    },
    {
      "name": "solid_block_mesh_5",
      "primitives": [
        {
          "extras": {
            "holesyCoreSurface": true,
            "holesySurfaceGroup": "facade"
          },
          "attributes": {
            "POSITION": 124,
            "NORMAL": 125,
            "TEXCOORD_0": 126
          },
          "indices": 127,
          "material": 0,
          "mode": 4
        },
        {
          "extras": {
            "holesyCoreSurface": true,
            "holesySurfaceGroup": "roof"
          },
          "attributes": {
            "POSITION": 128,
            "NORMAL": 129,
            "TEXCOORD_0": 130
          },
          "indices": 131,
          "material": 3,
          "mode": 4
        },
        {
          "extras": {
            "holesyCoreSurface": true,
            "holesySurfaceGroup": "interior"
          },
          "attributes": {
            "POSITION": 132,
            "NORMAL": 133,
            "TEXCOORD_0": 134
          },
          "indices": 135,
          "material": 0,
          "mode": 4
        },
        {
          "extras": {
            "holesyAuthenticSurface": true
          },
          "attributes": {
            "POSITION": 136,
            "NORMAL": 137,
            "TEXCOORD_0": 138
          },
          "indices": 139,
          "material": 0,
          "mode": 4
        },
        {
          "extras": {
            "holesyAuthenticSurface": true
          },
          "attributes": {
            "POSITION": 140,
            "NORMAL": 141,
            "TEXCOORD_0": 142
          },
          "indices": 143,
          "material": 1,
          "mode": 4
        },
        {
          "extras": {
            "holesyAuthenticSurface": true
          },
          "attributes": {
            "POSITION": 144,
            "NORMAL": 145,
            "TEXCOORD_0": 146
          },
          "indices": 147,
          "material": 2,
          "mode": 4
        },
        {
          "extras": {
            "holesyAuthenticSurface": true
          },
          "attributes": {
            "POSITION": 148,
            "NORMAL": 149,
            "TEXCOORD_0": 150
          },
          "indices": 151,
          "material": 3,
          "mode": 4
        }
      ]
    },
    {
      "name": "solid_block_mesh_6",
      "primitives": [
        {
          "extras": {
            "holesyCoreSurface": true,
            "holesySurfaceGroup": "facade"
          },
          "attributes": {
            "POSITION": 152,
            "NORMAL": 153,
            "TEXCOORD_0": 154
          },
          "indices": 155,
          "material": 0,
          "mode": 4
        },
        {
          "extras": {
            "holesyCoreSurface": true,
            "holesySurfaceGroup": "roof"
          },
          "attributes": {
            "POSITION": 156,
            "NORMAL": 157,
            "TEXCOORD_0": 158
          },
          "indices": 159,
          "material": 3,
          "mode": 4
        },
        {
          "extras": {
            "holesyCoreSurface": true,
            "holesySurfaceGroup": "interior"
          },
          "attributes": {
            "POSITION": 160,
            "NORMAL": 161,
            "TEXCOORD_0": 162
          },
          "indices": 163,
          "material": 0,
          "mode": 4
        },
        {
          "extras": {
            "holesyAuthenticSurface": true
          },
          "attributes": {
            "POSITION": 164,
            "NORMAL": 165,
            "TEXCOORD_0": 166
          },
          "indices": 167,
          "material": 0,
          "mode": 4
        },
        {
          "extras": {
            "holesyAuthenticSurface": true
          },
          "attributes": {
            "POSITION": 168,
            "NORMAL": 169,
            "TEXCOORD_0": 170
          },
          "indices": 171,
          "material": 1,
          "mode": 4
        },
        {
          "extras": {
            "holesyAuthenticSurface": true
          },
          "attributes": {
            "POSITION": 172,
            "NORMAL": 173,
            "TEXCOORD_0": 174
          },
          "indices": 175,
          "material": 2,
          "mode": 4
        },
        {
          "extras": {
            "holesyAuthenticSurface": true
          },
          "attributes": {
            "POSITION": 176,
            "NORMAL": 177,
            "TEXCOORD_0": 178
          },
          "indices": 179,
          "material": 3,
          "mode": 4
        }
      ]
    },
    {
      "name": "solid_block_mesh_7",
      "primitives": [
        {
          "extras": {
            "holesyCoreSurface": true,
            "holesySurfaceGroup": "facade"
          },
          "attributes": {
            "POSITION": 180,
            "NORMAL": 181,
            "TEXCOORD_0": 182
          },
          "indices": 183,
          "material": 0,
          "mode": 4
        },
        {
          "extras": {
            "holesyCoreSurface": true,
            "holesySurfaceGroup": "roof"
          },
          "attributes": {
            "POSITION": 184,
            "NORMAL": 185,
            "TEXCOORD_0": 186
          },
          "indices": 187,
          "material": 3,
          "mode": 4
        },
        {
          "extras": {
            "holesyCoreSurface": true,
            "holesySurfaceGroup": "interior"
          },
          "attributes": {
            "POSITION": 188,
            "NORMAL": 189,
            "TEXCOORD_0": 190
          },
          "indices": 191,
          "material": 0,
          "mode": 4
        },
        {
          "extras": {
            "holesyAuthenticSurface": true
          },
          "attributes": {
            "POSITION": 192,
            "NORMAL": 193,
            "TEXCOORD_0": 194
          },
          "indices": 195,
          "material": 0,
          "mode": 4
        },
        {
          "extras": {
            "holesyAuthenticSurface": true
          },
          "attributes": {
            "POSITION": 196,
            "NORMAL": 197,
            "TEXCOORD_0": 198
          },
          "indices": 199,
          "material": 1,
          "mode": 4
        },
        {
          "extras": {
            "holesyAuthenticSurface": true
          },
          "attributes": {
            "POSITION": 200,
            "NORMAL": 201,
            "TEXCOORD_0": 202
          },
          "indices": 203,
          "material": 2,
          "mode": 4
        },
        {
          "extras": {
            "holesyAuthenticSurface": true
          },
          "attributes": {
            "POSITION": 204,
            "NORMAL": 205,
            "TEXCOORD_0": 206
          },
          "indices": 207,
          "material": 3,
          "mode": 4
        }
      ]
    }
  ],
  "materials": [
    {
      "name": "DarkRed",
      "pbrMetallicRoughness": {
        "baseColorFactor": [
          0.202353,
          0.04252,
          0.032067,
          1
        ],
        "metallicFactor": 0,
        "roughnessFactor": 0.903921569
      },
      "emissiveFactor": [
        0,
        0,
        0
      ],
      "alphaMode": "OPAQUE",
      "doubleSided": true
    },
    {
      "name": "White",
      "pbrMetallicRoughness": {
        "baseColorFactor": [
          0.64,
          0.64,
          0.64,
          1
        ],
        "metallicFactor": 0,
        "roughnessFactor": 0.903921569
      },
      "emissiveFactor": [
        0,
        0,
        0
      ],
      "alphaMode": "OPAQUE",
      "doubleSided": true
    },
    {
      "name": "LightRed",
      "pbrMetallicRoughness": {
        "baseColorFactor": [
          0.273903,
          0.056039,
          0.041967,
          1
        ],
        "metallicFactor": 0,
        "roughnessFactor": 0.903921569
      },
      "emissiveFactor": [
        0,
        0,
        0
      ],
      "alphaMode": "OPAQUE",
      "doubleSided": true
    },
    {
      "name": "RoofBlack",
      "pbrMetallicRoughness": {
        "baseColorFactor": [
          0.078802,
          0.078802,
          0.078802,
          1
        ],
        "metallicFactor": 0,
        "roughnessFactor": 0.903921569
      },
      "emissiveFactor": [
        0,
        0,
        0
      ],
      "alphaMode": "OPAQUE",
      "doubleSided": true
    }
  ],
  "textures": [],
  "images": [],
  "samplers": [],
  "accessors": [
    {
      "bufferView": 0,
      "componentType": 5126,
      "count": 8,
      "type": "VEC3",
      "min": [
        -2.04,
        -1.613141662178707,
        -2.04
      ],
      "max": [
        2.04,
        1.613141662178707,
        2.04
      ]
    },
    {
      "bufferView": 1,
      "componentType": 5126,
      "count": 8,
      "type": "VEC3"
    },
    {
      "bufferView": 2,
      "componentType": 5126,
      "count": 8,
      "type": "VEC2"
    },
    {
      "bufferView": 3,
      "componentType": 5123,
      "count": 12,
      "type": "SCALAR",
      "min": [
        0
      ],
      "max": [
        7
      ]
    },
    {
      "bufferView": 4,
      "componentType": 5126,
      "count": 16,
      "type": "VEC3",
      "min": [
        -2.04,
        -1.613141662178707,
        -2.04
      ],
      "max": [
        2.04,
        1.613141662178707,
        2.04
      ]
    },
    {
      "bufferView": 5,
      "componentType": 5126,
      "count": 16,
      "type": "VEC3"
    },
    {
      "bufferView": 6,
      "componentType": 5126,
      "count": 16,
      "type": "VEC2"
    },
    {
      "bufferView": 7,
      "componentType": 5123,
      "count": 24,
      "type": "SCALAR",
      "min": [
        0
      ],
      "max": [
        15
      ]
    },
    {
      "bufferView": 8,
      "componentType": 5126,
      "count": 234,
      "type": "VEC3",
      "min": [
        -1.596192011958387,
        -1.6803558981028197,
        -1.6079350529373726
      ],
      "max": [
        2.125,
        1.6803558981028197,
        2.125
      ]
    },
    {
      "bufferView": 9,
      "componentType": 5126,
      "count": 234,
      "type": "VEC3"
    },
    {
      "bufferView": 10,
      "componentType": 5126,
      "count": 234,
      "type": "VEC2"
    },
    {
      "bufferView": 11,
      "componentType": 5123,
      "count": 234,
      "type": "SCALAR",
      "min": [
        0
      ],
      "max": [
        233
      ]
    },
    {
      "bufferView": 12,
      "componentType": 5126,
      "count": 237,
      "type": "VEC3",
      "min": [
        -1.634830071422369,
        -1.6803558981028197,
        -1.6079350529373726
      ],
      "max": [
        2.125,
        1.6803558981028197,
        2.125
      ]
    },
    {
      "bufferView": 13,
      "componentType": 5126,
      "count": 237,
      "type": "VEC3"
    },
    {
      "bufferView": 14,
      "componentType": 5126,
      "count": 237,
      "type": "VEC2"
    },
    {
      "bufferView": 15,
      "componentType": 5123,
      "count": 237,
      "type": "SCALAR",
      "min": [
        0
      ],
      "max": [
        236
      ]
    },
    {
      "bufferView": 16,
      "componentType": 5126,
      "count": 438,
      "type": "VEC3",
      "min": [
        -1.552566604223475,
        -1.4480404680471315,
        -1.4974804704311313
      ],
      "max": [
        2.089066725021504,
        1.6803558981028202,
        2.125
      ]
    },
    {
      "bufferView": 17,
      "componentType": 5126,
      "count": 438,
      "type": "VEC3"
    },
    {
      "bufferView": 18,
      "componentType": 5126,
      "count": 438,
      "type": "VEC2"
    },
    {
      "bufferView": 19,
      "componentType": 5123,
      "count": 438,
      "type": "SCALAR",
      "min": [
        0
      ],
      "max": [
        437
      ]
    },
    {
      "bufferView": 20,
      "componentType": 5126,
      "count": 36,
      "type": "VEC3",
      "min": [
        -1.992791825331845,
        1.2149656486178282,
        -2.124998707940862
      ],
      "max": [
        -1.3526461212392085,
        1.6803558981028197,
        2.125
      ]
    },
    {
      "bufferView": 21,
      "componentType": 5126,
      "count": 36,
      "type": "VEC3"
    },
    {
      "bufferView": 22,
      "componentType": 5126,
      "count": 36,
      "type": "VEC2"
    },
    {
      "bufferView": 23,
      "componentType": 5123,
      "count": 36,
      "type": "SCALAR",
      "min": [
        0
      ],
      "max": [
        35
      ]
    },
    {
      "bufferView": 24,
      "componentType": 5126,
      "count": 8,
      "type": "VEC3",
      "min": [
        -2.04,
        -1.613141662178707,
        -2.04
      ],
      "max": [
        2.04,
        1.613141662178707,
        2.04
      ]
    },
    {
      "bufferView": 25,
      "componentType": 5126,
      "count": 8,
      "type": "VEC3"
    },
    {
      "bufferView": 26,
      "componentType": 5126,
      "count": 8,
      "type": "VEC2"
    },
    {
      "bufferView": 27,
      "componentType": 5123,
      "count": 12,
      "type": "SCALAR",
      "min": [
        0
      ],
      "max": [
        7
      ]
    },
    {
      "bufferView": 28,
      "componentType": 5126,
      "count": 16,
      "type": "VEC3",
      "min": [
        -2.04,
        -1.613141662178707,
        -2.04
      ],
      "max": [
        2.04,
        1.613141662178707,
        2.04
      ]
    },
    {
      "bufferView": 29,
      "componentType": 5126,
      "count": 16,
      "type": "VEC3"
    },
    {
      "bufferView": 30,
      "componentType": 5126,
      "count": 16,
      "type": "VEC2"
    },
    {
      "bufferView": 31,
      "componentType": 5123,
      "count": 24,
      "type": "SCALAR",
      "min": [
        0
      ],
      "max": [
        15
      ]
    },
    {
      "bufferView": 32,
      "componentType": 5126,
      "count": 300,
      "type": "VEC3",
      "min": [
        -2.125,
        -1.6803558981028197,
        -1.6079350529373726
      ],
      "max": [
        1.7361707917871398,
        1.6803558981028197,
        2.125
      ]
    },
    {
      "bufferView": 33,
      "componentType": 5126,
      "count": 300,
      "type": "VEC3"
    },
    {
      "bufferView": 34,
      "componentType": 5126,
      "count": 300,
      "type": "VEC2"
    },
    {
      "bufferView": 35,
      "componentType": 5123,
      "count": 300,
      "type": "SCALAR",
      "min": [
        0
      ],
      "max": [
        299
      ]
    },
    {
      "bufferView": 36,
      "componentType": 5126,
      "count": 267,
      "type": "VEC3",
      "min": [
        -2.125,
        -1.6803558981028197,
        -1.6079350529373726
      ],
      "max": [
        1.7748104663250435,
        1.6803558981028197,
        2.125
      ]
    },
    {
      "bufferView": 37,
      "componentType": 5126,
      "count": 267,
      "type": "VEC3"
    },
    {
      "bufferView": 38,
      "componentType": 5126,
      "count": 267,
      "type": "VEC2"
    },
    {
      "bufferView": 39,
      "componentType": 5123,
      "count": 267,
      "type": "SCALAR",
      "min": [
        0
      ],
      "max": [
        266
      ]
    },
    {
      "bufferView": 40,
      "componentType": 5126,
      "count": 546,
      "type": "VEC3",
      "min": [
        -1.9490878543448433,
        -1.4480404680471315,
        -1.4974804704311313
      ],
      "max": [
        1.6700864891086065,
        1.6803558981028202,
        2.125
      ]
    },
    {
      "bufferView": 41,
      "componentType": 5126,
      "count": 546,
      "type": "VEC3"
    },
    {
      "bufferView": 42,
      "componentType": 5126,
      "count": 546,
      "type": "VEC2"
    },
    {
      "bufferView": 43,
      "componentType": 5123,
      "count": 546,
      "type": "SCALAR",
      "min": [
        0
      ],
      "max": [
        545
      ]
    },
    {
      "bufferView": 44,
      "componentType": 5126,
      "count": 24,
      "type": "VEC3",
      "min": [
        1.5453365509220096,
        1.4342720142701841,
        -2.125
      ],
      "max": [
        1.980637346190898,
        1.6803558981028197,
        2.125
      ]
    },
    {
      "bufferView": 45,
      "componentType": 5126,
      "count": 24,
      "type": "VEC3"
    },
    {
      "bufferView": 46,
      "componentType": 5126,
      "count": 24,
      "type": "VEC2"
    },
    {
      "bufferView": 47,
      "componentType": 5123,
      "count": 24,
      "type": "SCALAR",
      "min": [
        0
      ],
      "max": [
        23
      ]
    },
    {
      "bufferView": 48,
      "componentType": 5126,
      "count": 8,
      "type": "VEC3",
      "min": [
        -2.04,
        -1.613141662178707,
        -2.04
      ],
      "max": [
        2.04,
        1.613141662178707,
        2.04
      ]
    },
    {
      "bufferView": 49,
      "componentType": 5126,
      "count": 8,
      "type": "VEC3"
    },
    {
      "bufferView": 50,
      "componentType": 5126,
      "count": 8,
      "type": "VEC2"
    },
    {
      "bufferView": 51,
      "componentType": 5123,
      "count": 12,
      "type": "SCALAR",
      "min": [
        0
      ],
      "max": [
        7
      ]
    },
    {
      "bufferView": 52,
      "componentType": 5126,
      "count": 16,
      "type": "VEC3",
      "min": [
        -2.04,
        -1.613141662178707,
        -2.04
      ],
      "max": [
        2.04,
        1.613141662178707,
        2.04
      ]
    },
    {
      "bufferView": 53,
      "componentType": 5126,
      "count": 16,
      "type": "VEC3"
    },
    {
      "bufferView": 54,
      "componentType": 5126,
      "count": 16,
      "type": "VEC2"
    },
    {
      "bufferView": 55,
      "componentType": 5123,
      "count": 24,
      "type": "SCALAR",
      "min": [
        0
      ],
      "max": [
        15
      ]
    },
    {
      "bufferView": 56,
      "componentType": 5126,
      "count": 300,
      "type": "VEC3",
      "min": [
        -1.596192011958387,
        -1.6803558981028197,
        -2.125
      ],
      "max": [
        2.125,
        1.6803558981028197,
        1.5990214599622221
      ]
    },
    {
      "bufferView": 57,
      "componentType": 5126,
      "count": 300,
      "type": "VEC3"
    },
    {
      "bufferView": 58,
      "componentType": 5126,
      "count": 300,
      "type": "VEC2"
    },
    {
      "bufferView": 59,
      "componentType": 5123,
      "count": 300,
      "type": "SCALAR",
      "min": [
        0
      ],
      "max": [
        299
      ]
    },
    {
      "bufferView": 60,
      "componentType": 5126,
      "count": 753,
      "type": "VEC3",
      "min": [
        -1.634830071422369,
        -1.6803558981028197,
        -2.125
      ],
      "max": [
        2.125,
        1.6803558981028197,
        1.5990214599622221
      ]
    },
    {
      "bufferView": 61,
      "componentType": 5126,
      "count": 753,
      "type": "VEC3"
    },
    {
      "bufferView": 62,
      "componentType": 5126,
      "count": 753,
      "type": "VEC2"
    },
    {
      "bufferView": 63,
      "componentType": 5123,
      "count": 753,
      "type": "SCALAR",
      "min": [
        0
      ],
      "max": [
        752
      ]
    },
    {
      "bufferView": 64,
      "componentType": 5126,
      "count": 606,
      "type": "VEC3",
      "min": [
        -1.552566604223475,
        -1.4480404680471315,
        -2.125
      ],
      "max": [
        2.089066725021504,
        1.6803558981028202,
        1.4913564331339444
      ]
    },
    {
      "bufferView": 65,
      "componentType": 5126,
      "count": 606,
      "type": "VEC3"
    },
    {
      "bufferView": 66,
      "componentType": 5126,
      "count": 606,
      "type": "VEC2"
    },
    {
      "bufferView": 67,
      "componentType": 5123,
      "count": 606,
      "type": "SCALAR",
      "min": [
        0
      ],
      "max": [
        605
      ]
    },
    {
      "bufferView": 68,
      "componentType": 5126,
      "count": 36,
      "type": "VEC3",
      "min": [
        -1.992791825331845,
        1.2149656486178282,
        -2.125
      ],
      "max": [
        -1.3526461212392085,
        1.6803558981028197,
        2.124998707940862
      ]
    },
    {
      "bufferView": 69,
      "componentType": 5126,
      "count": 36,
      "type": "VEC3"
    },
    {
      "bufferView": 70,
      "componentType": 5126,
      "count": 36,
      "type": "VEC2"
    },
    {
      "bufferView": 71,
      "componentType": 5123,
      "count": 36,
      "type": "SCALAR",
      "min": [
        0
      ],
      "max": [
        35
      ]
    },
    {
      "bufferView": 72,
      "componentType": 5126,
      "count": 8,
      "type": "VEC3",
      "min": [
        -2.04,
        -1.613141662178707,
        -2.04
      ],
      "max": [
        2.04,
        1.613141662178707,
        2.04
      ]
    },
    {
      "bufferView": 73,
      "componentType": 5126,
      "count": 8,
      "type": "VEC3"
    },
    {
      "bufferView": 74,
      "componentType": 5126,
      "count": 8,
      "type": "VEC2"
    },
    {
      "bufferView": 75,
      "componentType": 5123,
      "count": 12,
      "type": "SCALAR",
      "min": [
        0
      ],
      "max": [
        7
      ]
    },
    {
      "bufferView": 76,
      "componentType": 5126,
      "count": 16,
      "type": "VEC3",
      "min": [
        -2.04,
        -1.613141662178707,
        -2.04
      ],
      "max": [
        2.04,
        1.613141662178707,
        2.04
      ]
    },
    {
      "bufferView": 77,
      "componentType": 5126,
      "count": 16,
      "type": "VEC3"
    },
    {
      "bufferView": 78,
      "componentType": 5126,
      "count": 16,
      "type": "VEC2"
    },
    {
      "bufferView": 79,
      "componentType": 5123,
      "count": 24,
      "type": "SCALAR",
      "min": [
        0
      ],
      "max": [
        15
      ]
    },
    {
      "bufferView": 80,
      "componentType": 5126,
      "count": 291,
      "type": "VEC3",
      "min": [
        -2.125,
        -1.6803558981028197,
        -2.125
      ],
      "max": [
        1.7361707917871398,
        1.6803558981028197,
        1.5990214599622221
      ]
    },
    {
      "bufferView": 81,
      "componentType": 5126,
      "count": 291,
      "type": "VEC3"
    },
    {
      "bufferView": 82,
      "componentType": 5126,
      "count": 291,
      "type": "VEC2"
    },
    {
      "bufferView": 83,
      "componentType": 5123,
      "count": 291,
      "type": "SCALAR",
      "min": [
        0
      ],
      "max": [
        290
      ]
    },
    {
      "bufferView": 84,
      "componentType": 5126,
      "count": 687,
      "type": "VEC3",
      "min": [
        -2.125,
        -1.6803558981028197,
        -2.125
      ],
      "max": [
        1.7748104663250435,
        1.6803558981028197,
        1.5990214599622221
      ]
    },
    {
      "bufferView": 85,
      "componentType": 5126,
      "count": 687,
      "type": "VEC3"
    },
    {
      "bufferView": 86,
      "componentType": 5126,
      "count": 687,
      "type": "VEC2"
    },
    {
      "bufferView": 87,
      "componentType": 5123,
      "count": 687,
      "type": "SCALAR",
      "min": [
        0
      ],
      "max": [
        686
      ]
    },
    {
      "bufferView": 88,
      "componentType": 5126,
      "count": 510,
      "type": "VEC3",
      "min": [
        -2.0908456128630757,
        -1.4480404680471315,
        -2.125
      ],
      "max": [
        1.6700864891086065,
        1.6803558981028202,
        1.4913564331339444
      ]
    },
    {
      "bufferView": 89,
      "componentType": 5126,
      "count": 510,
      "type": "VEC3"
    },
    {
      "bufferView": 90,
      "componentType": 5126,
      "count": 510,
      "type": "VEC2"
    },
    {
      "bufferView": 91,
      "componentType": 5123,
      "count": 510,
      "type": "SCALAR",
      "min": [
        0
      ],
      "max": [
        509
      ]
    },
    {
      "bufferView": 92,
      "componentType": 5126,
      "count": 24,
      "type": "VEC3",
      "min": [
        1.5453365509220096,
        1.4342720142701841,
        -2.125
      ],
      "max": [
        1.9806367001612308,
        1.6803558981028197,
        2.124998707940862
      ]
    },
    {
      "bufferView": 93,
      "componentType": 5126,
      "count": 24,
      "type": "VEC3"
    },
    {
      "bufferView": 94,
      "componentType": 5126,
      "count": 24,
      "type": "VEC2"
    },
    {
      "bufferView": 95,
      "componentType": 5123,
      "count": 24,
      "type": "SCALAR",
      "min": [
        0
      ],
      "max": [
        23
      ]
    },
    {
      "bufferView": 96,
      "componentType": 5126,
      "count": 8,
      "type": "VEC3",
      "min": [
        -2.04,
        -1.613141662178707,
        -2.04
      ],
      "max": [
        2.04,
        1.613141662178707,
        2.04
      ]
    },
    {
      "bufferView": 97,
      "componentType": 5126,
      "count": 8,
      "type": "VEC3"
    },
    {
      "bufferView": 98,
      "componentType": 5126,
      "count": 8,
      "type": "VEC2"
    },
    {
      "bufferView": 99,
      "componentType": 5123,
      "count": 12,
      "type": "SCALAR",
      "min": [
        0
      ],
      "max": [
        7
      ]
    },
    {
      "bufferView": 100,
      "componentType": 5126,
      "count": 4,
      "type": "VEC3",
      "min": [
        -2.04,
        -1.613141662178707,
        -2.04
      ],
      "max": [
        2.04,
        1.613141662178707,
        2.04
      ]
    },
    {
      "bufferView": 101,
      "componentType": 5126,
      "count": 4,
      "type": "VEC3"
    },
    {
      "bufferView": 102,
      "componentType": 5126,
      "count": 4,
      "type": "VEC2"
    },
    {
      "bufferView": 103,
      "componentType": 5123,
      "count": 6,
      "type": "SCALAR",
      "min": [
        0
      ],
      "max": [
        3
      ]
    },
    {
      "bufferView": 104,
      "componentType": 5126,
      "count": 12,
      "type": "VEC3",
      "min": [
        -2.04,
        -1.613141662178707,
        -2.04
      ],
      "max": [
        2.04,
        1.613141662178707,
        2.04
      ]
    },
    {
      "bufferView": 105,
      "componentType": 5126,
      "count": 12,
      "type": "VEC3"
    },
    {
      "bufferView": 106,
      "componentType": 5126,
      "count": 12,
      "type": "VEC2"
    },
    {
      "bufferView": 107,
      "componentType": 5123,
      "count": 18,
      "type": "SCALAR",
      "min": [
        0
      ],
      "max": [
        11
      ]
    },
    {
      "bufferView": 108,
      "componentType": 5126,
      "count": 186,
      "type": "VEC3",
      "min": [
        -1.553619208479219,
        -1.6803558981028197,
        -1.6079350529373726
      ],
      "max": [
        2.125,
        0.9510520793817436,
        2.125
      ]
    },
    {
      "bufferView": 109,
      "componentType": 5126,
      "count": 186,
      "type": "VEC3"
    },
    {
      "bufferView": 110,
      "componentType": 5126,
      "count": 186,
      "type": "VEC2"
    },
    {
      "bufferView": 111,
      "componentType": 5123,
      "count": 186,
      "type": "SCALAR",
      "min": [
        0
      ],
      "max": [
        185
      ]
    },
    {
      "bufferView": 112,
      "componentType": 5126,
      "count": 207,
      "type": "VEC3",
      "min": [
        -1.553015558608727,
        -1.6803558981028197,
        -1.6819949136571979
      ],
      "max": [
        2.125,
        0.9502380446068557,
        -1.0652595556798632
      ]
    },
    {
      "bufferView": 113,
      "componentType": 5126,
      "count": 207,
      "type": "VEC3"
    },
    {
      "bufferView": 114,
      "componentType": 5126,
      "count": 207,
      "type": "VEC2"
    },
    {
      "bufferView": 115,
      "componentType": 5123,
      "count": 207,
      "type": "SCALAR",
      "min": [
        0
      ],
      "max": [
        206
      ]
    },
    {
      "bufferView": 116,
      "componentType": 5126,
      "count": 219,
      "type": "VEC3",
      "min": [
        -1.310814910248442,
        -1.6803558981028197,
        -1.4974804704311313
      ],
      "max": [
        2.089066725021504,
        0.9732306669809905,
        -1.325714451700454
      ]
    },
    {
      "bufferView": 117,
      "componentType": 5126,
      "count": 219,
      "type": "VEC3"
    },
    {
      "bufferView": 118,
      "componentType": 5126,
      "count": 219,
      "type": "VEC2"
    },
    {
      "bufferView": 119,
      "componentType": 5123,
      "count": 219,
      "type": "SCALAR",
      "min": [
        0
      ],
      "max": [
        218
      ]
    },
    {
      "bufferView": 120,
      "componentType": 5126,
      "count": 228,
      "type": "VEC3",
      "min": [
        -1.753567042641646,
        -1.6803558981028197,
        -2.124998707940862
      ],
      "max": [
        2.125,
        1.3185456284024202,
        2.125
      ]
    },
    {
      "bufferView": 121,
      "componentType": 5126,
      "count": 228,
      "type": "VEC3"
    },
    {
      "bufferView": 122,
      "componentType": 5126,
      "count": 228,
      "type": "VEC2"
    },
    {
      "bufferView": 123,
      "componentType": 5123,
      "count": 228,
      "type": "SCALAR",
      "min": [
        0
      ],
      "max": [
        227
      ]
    },
    {
      "bufferView": 124,
      "componentType": 5126,
      "count": 8,
      "type": "VEC3",
      "min": [
        -2.04,
        -1.613141662178707,
        -2.04
      ],
      "max": [
        2.04,
        1.613141662178707,
        2.04
      ]
    },
    {
      "bufferView": 125,
      "componentType": 5126,
      "count": 8,
      "type": "VEC3"
    },
    {
      "bufferView": 126,
      "componentType": 5126,
      "count": 8,
      "type": "VEC2"
    },
    {
      "bufferView": 127,
      "componentType": 5123,
      "count": 12,
      "type": "SCALAR",
      "min": [
        0
      ],
      "max": [
        7
      ]
    },
    {
      "bufferView": 128,
      "componentType": 5126,
      "count": 4,
      "type": "VEC3",
      "min": [
        -2.04,
        -1.613141662178707,
        -2.04
      ],
      "max": [
        2.04,
        1.613141662178707,
        2.04
      ]
    },
    {
      "bufferView": 129,
      "componentType": 5126,
      "count": 4,
      "type": "VEC3"
    },
    {
      "bufferView": 130,
      "componentType": 5126,
      "count": 4,
      "type": "VEC2"
    },
    {
      "bufferView": 131,
      "componentType": 5123,
      "count": 6,
      "type": "SCALAR",
      "min": [
        0
      ],
      "max": [
        3
      ]
    },
    {
      "bufferView": 132,
      "componentType": 5126,
      "count": 12,
      "type": "VEC3",
      "min": [
        -2.04,
        -1.613141662178707,
        -2.04
      ],
      "max": [
        2.04,
        1.613141662178707,
        2.04
      ]
    },
    {
      "bufferView": 133,
      "componentType": 5126,
      "count": 12,
      "type": "VEC3"
    },
    {
      "bufferView": 134,
      "componentType": 5126,
      "count": 12,
      "type": "VEC2"
    },
    {
      "bufferView": 135,
      "componentType": 5123,
      "count": 18,
      "type": "SCALAR",
      "min": [
        0
      ],
      "max": [
        11
      ]
    },
    {
      "bufferView": 136,
      "componentType": 5126,
      "count": 291,
      "type": "VEC3",
      "min": [
        -2.125,
        -1.6803558981028197,
        -1.6079350529373726
      ],
      "max": [
        1.693598021662479,
        1.2271241636863355,
        2.125
      ]
    },
    {
      "bufferView": 137,
      "componentType": 5126,
      "count": 291,
      "type": "VEC3"
    },
    {
      "bufferView": 138,
      "componentType": 5126,
      "count": 291,
      "type": "VEC2"
    },
    {
      "bufferView": 139,
      "componentType": 5123,
      "count": 291,
      "type": "SCALAR",
      "min": [
        0
      ],
      "max": [
        290
      ]
    },
    {
      "bufferView": 140,
      "componentType": 5126,
      "count": 303,
      "type": "VEC3",
      "min": [
        -2.125,
        -1.6803558981028197,
        -1.6819949136571979
      ],
      "max": [
        1.692994371791987,
        1.2214662367230176,
        -1.0652595556798632
      ]
    },
    {
      "bufferView": 141,
      "componentType": 5126,
      "count": 303,
      "type": "VEC3"
    },
    {
      "bufferView": 142,
      "componentType": 5126,
      "count": 303,
      "type": "VEC2"
    },
    {
      "bufferView": 143,
      "componentType": 5123,
      "count": 303,
      "type": "SCALAR",
      "min": [
        0
      ],
      "max": [
        302
      ]
    },
    {
      "bufferView": 144,
      "componentType": 5126,
      "count": 219,
      "type": "VEC3",
      "min": [
        -1.9490878543448433,
        -1.6803558981028202,
        -1.4974804704311313
      ],
      "max": [
        1.4507949821363324,
        0.9732306669809905,
        -1.325714451700454
      ]
    },
    {
      "bufferView": 145,
      "componentType": 5126,
      "count": 219,
      "type": "VEC3"
    },
    {
      "bufferView": 146,
      "componentType": 5126,
      "count": 219,
      "type": "VEC2"
    },
    {
      "bufferView": 147,
      "componentType": 5123,
      "count": 219,
      "type": "SCALAR",
      "min": [
        0
      ],
      "max": [
        218
      ]
    },
    {
      "bufferView": 148,
      "componentType": 5126,
      "count": 258,
      "type": "VEC3",
      "min": [
        -2.125,
        -1.6803558981028197,
        -2.125
      ],
      "max": [
        1.992791825331845,
        1.6803558981028193,
        2.125
      ]
    },
    {
      "bufferView": 149,
      "componentType": 5126,
      "count": 258,
      "type": "VEC3"
    },
    {
      "bufferView": 150,
      "componentType": 5126,
      "count": 258,
      "type": "VEC2"
    },
    {
      "bufferView": 151,
      "componentType": 5123,
      "count": 258,
      "type": "SCALAR",
      "min": [
        0
      ],
      "max": [
        257
      ]
    },
    {
      "bufferView": 152,
      "componentType": 5126,
      "count": 8,
      "type": "VEC3",
      "min": [
        -2.04,
        -1.613141662178707,
        -2.04
      ],
      "max": [
        2.04,
        1.613141662178707,
        2.04
      ]
    },
    {
      "bufferView": 153,
      "componentType": 5126,
      "count": 8,
      "type": "VEC3"
    },
    {
      "bufferView": 154,
      "componentType": 5126,
      "count": 8,
      "type": "VEC2"
    },
    {
      "bufferView": 155,
      "componentType": 5123,
      "count": 12,
      "type": "SCALAR",
      "min": [
        0
      ],
      "max": [
        7
      ]
    },
    {
      "bufferView": 156,
      "componentType": 5126,
      "count": 4,
      "type": "VEC3",
      "min": [
        -2.04,
        -1.613141662178707,
        -2.04
      ],
      "max": [
        2.04,
        1.613141662178707,
        2.04
      ]
    },
    {
      "bufferView": 157,
      "componentType": 5126,
      "count": 4,
      "type": "VEC3"
    },
    {
      "bufferView": 158,
      "componentType": 5126,
      "count": 4,
      "type": "VEC2"
    },
    {
      "bufferView": 159,
      "componentType": 5123,
      "count": 6,
      "type": "SCALAR",
      "min": [
        0
      ],
      "max": [
        3
      ]
    },
    {
      "bufferView": 160,
      "componentType": 5126,
      "count": 12,
      "type": "VEC3",
      "min": [
        -2.04,
        -1.613141662178707,
        -2.04
      ],
      "max": [
        2.04,
        1.613141662178707,
        2.04
      ]
    },
    {
      "bufferView": 161,
      "componentType": 5126,
      "count": 12,
      "type": "VEC3"
    },
    {
      "bufferView": 162,
      "componentType": 5126,
      "count": 12,
      "type": "VEC2"
    },
    {
      "bufferView": 163,
      "componentType": 5123,
      "count": 18,
      "type": "SCALAR",
      "min": [
        0
      ],
      "max": [
        11
      ]
    },
    {
      "bufferView": 164,
      "componentType": 5126,
      "count": 159,
      "type": "VEC3",
      "min": [
        -1.553619208479219,
        -1.6803558981028197,
        -2.125
      ],
      "max": [
        2.125,
        0.9509374431692494,
        1.5990214599622221
      ]
    },
    {
      "bufferView": 165,
      "componentType": 5126,
      "count": 159,
      "type": "VEC3"
    },
    {
      "bufferView": 166,
      "componentType": 5126,
      "count": 159,
      "type": "VEC2"
    },
    {
      "bufferView": 167,
      "componentType": 5123,
      "count": 159,
      "type": "SCALAR",
      "min": [
        0
      ],
      "max": [
        158
      ]
    },
    {
      "bufferView": 168,
      "componentType": 5126,
      "count": 681,
      "type": "VEC3",
      "min": [
        -1.5530155586087266,
        -1.6803558981028197,
        0.9958937458067454
      ],
      "max": [
        2.125,
        0.9502380446068557,
        1.7929411246652758
      ]
    },
    {
      "bufferView": 169,
      "componentType": 5126,
      "count": 681,
      "type": "VEC3"
    },
    {
      "bufferView": 170,
      "componentType": 5126,
      "count": 681,
      "type": "VEC2"
    },
    {
      "bufferView": 171,
      "componentType": 5123,
      "count": 681,
      "type": "SCALAR",
      "min": [
        0
      ],
      "max": [
        680
      ]
    },
    {
      "bufferView": 172,
      "componentType": 5126,
      "count": 309,
      "type": "VEC3",
      "min": [
        -1.310814910248442,
        -1.6803558981028202,
        1.2563502569012583
      ],
      "max": [
        2.089066725021504,
        0.9732306669809905,
        1.731655852638375
      ]
    },
    {
      "bufferView": 173,
      "componentType": 5126,
      "count": 309,
      "type": "VEC3"
    },
    {
      "bufferView": 174,
      "componentType": 5126,
      "count": 309,
      "type": "VEC2"
    },
    {
      "bufferView": 175,
      "componentType": 5123,
      "count": 309,
      "type": "SCALAR",
      "min": [
        0
      ],
      "max": [
        308
      ]
    },
    {
      "bufferView": 176,
      "componentType": 5126,
      "count": 222,
      "type": "VEC3",
      "min": [
        -1.753567042641646,
        -1.6803558981028197,
        -2.125
      ],
      "max": [
        2.125,
        1.3185456284024202,
        2.124998707940862
      ]
    },
    {
      "bufferView": 177,
      "componentType": 5126,
      "count": 222,
      "type": "VEC3"
    },
    {
      "bufferView": 178,
      "componentType": 5126,
      "count": 222,
      "type": "VEC2"
    },
    {
      "bufferView": 179,
      "componentType": 5123,
      "count": 222,
      "type": "SCALAR",
      "min": [
        0
      ],
      "max": [
        221
      ]
    },
    {
      "bufferView": 180,
      "componentType": 5126,
      "count": 8,
      "type": "VEC3",
      "min": [
        -2.04,
        -1.613141662178707,
        -2.04
      ],
      "max": [
        2.04,
        1.613141662178707,
        2.04
      ]
    },
    {
      "bufferView": 181,
      "componentType": 5126,
      "count": 8,
      "type": "VEC3"
    },
    {
      "bufferView": 182,
      "componentType": 5126,
      "count": 8,
      "type": "VEC2"
    },
    {
      "bufferView": 183,
      "componentType": 5123,
      "count": 12,
      "type": "SCALAR",
      "min": [
        0
      ],
      "max": [
        7
      ]
    },
    {
      "bufferView": 184,
      "componentType": 5126,
      "count": 4,
      "type": "VEC3",
      "min": [
        -2.04,
        -1.613141662178707,
        -2.04
      ],
      "max": [
        2.04,
        1.613141662178707,
        2.04
      ]
    },
    {
      "bufferView": 185,
      "componentType": 5126,
      "count": 4,
      "type": "VEC3"
    },
    {
      "bufferView": 186,
      "componentType": 5126,
      "count": 4,
      "type": "VEC2"
    },
    {
      "bufferView": 187,
      "componentType": 5123,
      "count": 6,
      "type": "SCALAR",
      "min": [
        0
      ],
      "max": [
        3
      ]
    },
    {
      "bufferView": 188,
      "componentType": 5126,
      "count": 12,
      "type": "VEC3",
      "min": [
        -2.04,
        -1.613141662178707,
        -2.04
      ],
      "max": [
        2.04,
        1.613141662178707,
        2.04
      ]
    },
    {
      "bufferView": 189,
      "componentType": 5126,
      "count": 12,
      "type": "VEC3"
    },
    {
      "bufferView": 190,
      "componentType": 5126,
      "count": 12,
      "type": "VEC2"
    },
    {
      "bufferView": 191,
      "componentType": 5123,
      "count": 18,
      "type": "SCALAR",
      "min": [
        0
      ],
      "max": [
        11
      ]
    },
    {
      "bufferView": 192,
      "componentType": 5126,
      "count": 240,
      "type": "VEC3",
      "min": [
        -2.125,
        -1.6803558981028197,
        -2.125
      ],
      "max": [
        1.693598021662479,
        1.227071957083318,
        1.5990214599622221
      ]
    },
    {
      "bufferView": 193,
      "componentType": 5126,
      "count": 240,
      "type": "VEC3"
    },
    {
      "bufferView": 194,
      "componentType": 5126,
      "count": 240,
      "type": "VEC2"
    },
    {
      "bufferView": 195,
      "componentType": 5123,
      "count": 240,
      "type": "SCALAR",
      "min": [
        0
      ],
      "max": [
        239
      ]
    },
    {
      "bufferView": 196,
      "componentType": 5126,
      "count": 777,
      "type": "VEC3",
      "min": [
        -2.125,
        -1.6803558981028197,
        0.9958937458067454
      ],
      "max": [
        1.692994371791987,
        1.2214662367230176,
        1.7733451097556734
      ]
    },
    {
      "bufferView": 197,
      "componentType": 5126,
      "count": 777,
      "type": "VEC3"
    },
    {
      "bufferView": 198,
      "componentType": 5126,
      "count": 777,
      "type": "VEC2"
    },
    {
      "bufferView": 199,
      "componentType": 5123,
      "count": 777,
      "type": "SCALAR",
      "min": [
        0
      ],
      "max": [
        776
      ]
    },
    {
      "bufferView": 200,
      "componentType": 5126,
      "count": 363,
      "type": "VEC3",
      "min": [
        -1.9490878543448433,
        -1.6803558981028197,
        1.2563502569012583
      ],
      "max": [
        1.4507949821363324,
        0.9732306669809905,
        1.7139578726018287
      ]
    },
    {
      "bufferView": 201,
      "componentType": 5126,
      "count": 363,
      "type": "VEC3"
    },
    {
      "bufferView": 202,
      "componentType": 5126,
      "count": 363,
      "type": "VEC2"
    },
    {
      "bufferView": 203,
      "componentType": 5123,
      "count": 363,
      "type": "SCALAR",
      "min": [
        0
      ],
      "max": [
        362
      ]
    },
    {
      "bufferView": 204,
      "componentType": 5126,
      "count": 252,
      "type": "VEC3",
      "min": [
        -2.125,
        -1.6803558981028197,
        -2.125
      ],
      "max": [
        1.992791179302178,
        1.6803558981028193,
        2.125
      ]
    },
    {
      "bufferView": 205,
      "componentType": 5126,
      "count": 252,
      "type": "VEC3"
    },
    {
      "bufferView": 206,
      "componentType": 5126,
      "count": 252,
      "type": "VEC2"
    },
    {
      "bufferView": 207,
      "componentType": 5123,
      "count": 252,
      "type": "SCALAR",
      "min": [
        0
      ],
      "max": [
        251
      ]
    }
  ],
  "bufferViews": [
    {
      "buffer": 0,
      "byteOffset": 0,
      "byteLength": 96,
      "target": 34962
    },
    {
      "buffer": 0,
      "byteOffset": 96,
      "byteLength": 96,
      "target": 34962
    },
    {
      "buffer": 0,
      "byteOffset": 192,
      "byteLength": 64,
      "target": 34962
    },
    {
      "buffer": 0,
      "byteOffset": 256,
      "byteLength": 24,
      "target": 34963
    },
    {
      "buffer": 0,
      "byteOffset": 280,
      "byteLength": 192,
      "target": 34962
    },
    {
      "buffer": 0,
      "byteOffset": 472,
      "byteLength": 192,
      "target": 34962
    },
    {
      "buffer": 0,
      "byteOffset": 664,
      "byteLength": 128,
      "target": 34962
    },
    {
      "buffer": 0,
      "byteOffset": 792,
      "byteLength": 48,
      "target": 34963
    },
    {
      "buffer": 0,
      "byteOffset": 840,
      "byteLength": 2808,
      "target": 34962
    },
    {
      "buffer": 0,
      "byteOffset": 3648,
      "byteLength": 2808,
      "target": 34962
    },
    {
      "buffer": 0,
      "byteOffset": 6456,
      "byteLength": 1872,
      "target": 34962
    },
    {
      "buffer": 0,
      "byteOffset": 8328,
      "byteLength": 468,
      "target": 34963
    },
    {
      "buffer": 0,
      "byteOffset": 8796,
      "byteLength": 2844,
      "target": 34962
    },
    {
      "buffer": 0,
      "byteOffset": 11640,
      "byteLength": 2844,
      "target": 34962
    },
    {
      "buffer": 0,
      "byteOffset": 14484,
      "byteLength": 1896,
      "target": 34962
    },
    {
      "buffer": 0,
      "byteOffset": 16380,
      "byteLength": 474,
      "target": 34963
    },
    {
      "buffer": 0,
      "byteOffset": 16856,
      "byteLength": 5256,
      "target": 34962
    },
    {
      "buffer": 0,
      "byteOffset": 22112,
      "byteLength": 5256,
      "target": 34962
    },
    {
      "buffer": 0,
      "byteOffset": 27368,
      "byteLength": 3504,
      "target": 34962
    },
    {
      "buffer": 0,
      "byteOffset": 30872,
      "byteLength": 876,
      "target": 34963
    },
    {
      "buffer": 0,
      "byteOffset": 31748,
      "byteLength": 432,
      "target": 34962
    },
    {
      "buffer": 0,
      "byteOffset": 32180,
      "byteLength": 432,
      "target": 34962
    },
    {
      "buffer": 0,
      "byteOffset": 32612,
      "byteLength": 288,
      "target": 34962
    },
    {
      "buffer": 0,
      "byteOffset": 32900,
      "byteLength": 72,
      "target": 34963
    },
    {
      "buffer": 0,
      "byteOffset": 32972,
      "byteLength": 96,
      "target": 34962
    },
    {
      "buffer": 0,
      "byteOffset": 33068,
      "byteLength": 96,
      "target": 34962
    },
    {
      "buffer": 0,
      "byteOffset": 33164,
      "byteLength": 64,
      "target": 34962
    },
    {
      "buffer": 0,
      "byteOffset": 33228,
      "byteLength": 24,
      "target": 34963
    },
    {
      "buffer": 0,
      "byteOffset": 33252,
      "byteLength": 192,
      "target": 34962
    },
    {
      "buffer": 0,
      "byteOffset": 33444,
      "byteLength": 192,
      "target": 34962
    },
    {
      "buffer": 0,
      "byteOffset": 33636,
      "byteLength": 128,
      "target": 34962
    },
    {
      "buffer": 0,
      "byteOffset": 33764,
      "byteLength": 48,
      "target": 34963
    },
    {
      "buffer": 0,
      "byteOffset": 33812,
      "byteLength": 3600,
      "target": 34962
    },
    {
      "buffer": 0,
      "byteOffset": 37412,
      "byteLength": 3600,
      "target": 34962
    },
    {
      "buffer": 0,
      "byteOffset": 41012,
      "byteLength": 2400,
      "target": 34962
    },
    {
      "buffer": 0,
      "byteOffset": 43412,
      "byteLength": 600,
      "target": 34963
    },
    {
      "buffer": 0,
      "byteOffset": 44012,
      "byteLength": 3204,
      "target": 34962
    },
    {
      "buffer": 0,
      "byteOffset": 47216,
      "byteLength": 3204,
      "target": 34962
    },
    {
      "buffer": 0,
      "byteOffset": 50420,
      "byteLength": 2136,
      "target": 34962
    },
    {
      "buffer": 0,
      "byteOffset": 52556,
      "byteLength": 534,
      "target": 34963
    },
    {
      "buffer": 0,
      "byteOffset": 53092,
      "byteLength": 6552,
      "target": 34962
    },
    {
      "buffer": 0,
      "byteOffset": 59644,
      "byteLength": 6552,
      "target": 34962
    },
    {
      "buffer": 0,
      "byteOffset": 66196,
      "byteLength": 4368,
      "target": 34962
    },
    {
      "buffer": 0,
      "byteOffset": 70564,
      "byteLength": 1092,
      "target": 34963
    },
    {
      "buffer": 0,
      "byteOffset": 71656,
      "byteLength": 288,
      "target": 34962
    },
    {
      "buffer": 0,
      "byteOffset": 71944,
      "byteLength": 288,
      "target": 34962
    },
    {
      "buffer": 0,
      "byteOffset": 72232,
      "byteLength": 192,
      "target": 34962
    },
    {
      "buffer": 0,
      "byteOffset": 72424,
      "byteLength": 48,
      "target": 34963
    },
    {
      "buffer": 0,
      "byteOffset": 72472,
      "byteLength": 96,
      "target": 34962
    },
    {
      "buffer": 0,
      "byteOffset": 72568,
      "byteLength": 96,
      "target": 34962
    },
    {
      "buffer": 0,
      "byteOffset": 72664,
      "byteLength": 64,
      "target": 34962
    },
    {
      "buffer": 0,
      "byteOffset": 72728,
      "byteLength": 24,
      "target": 34963
    },
    {
      "buffer": 0,
      "byteOffset": 72752,
      "byteLength": 192,
      "target": 34962
    },
    {
      "buffer": 0,
      "byteOffset": 72944,
      "byteLength": 192,
      "target": 34962
    },
    {
      "buffer": 0,
      "byteOffset": 73136,
      "byteLength": 128,
      "target": 34962
    },
    {
      "buffer": 0,
      "byteOffset": 73264,
      "byteLength": 48,
      "target": 34963
    },
    {
      "buffer": 0,
      "byteOffset": 73312,
      "byteLength": 3600,
      "target": 34962
    },
    {
      "buffer": 0,
      "byteOffset": 76912,
      "byteLength": 3600,
      "target": 34962
    },
    {
      "buffer": 0,
      "byteOffset": 80512,
      "byteLength": 2400,
      "target": 34962
    },
    {
      "buffer": 0,
      "byteOffset": 82912,
      "byteLength": 600,
      "target": 34963
    },
    {
      "buffer": 0,
      "byteOffset": 83512,
      "byteLength": 9036,
      "target": 34962
    },
    {
      "buffer": 0,
      "byteOffset": 92548,
      "byteLength": 9036,
      "target": 34962
    },
    {
      "buffer": 0,
      "byteOffset": 101584,
      "byteLength": 6024,
      "target": 34962
    },
    {
      "buffer": 0,
      "byteOffset": 107608,
      "byteLength": 1506,
      "target": 34963
    },
    {
      "buffer": 0,
      "byteOffset": 109116,
      "byteLength": 7272,
      "target": 34962
    },
    {
      "buffer": 0,
      "byteOffset": 116388,
      "byteLength": 7272,
      "target": 34962
    },
    {
      "buffer": 0,
      "byteOffset": 123660,
      "byteLength": 4848,
      "target": 34962
    },
    {
      "buffer": 0,
      "byteOffset": 128508,
      "byteLength": 1212,
      "target": 34963
    },
    {
      "buffer": 0,
      "byteOffset": 129720,
      "byteLength": 432,
      "target": 34962
    },
    {
      "buffer": 0,
      "byteOffset": 130152,
      "byteLength": 432,
      "target": 34962
    },
    {
      "buffer": 0,
      "byteOffset": 130584,
      "byteLength": 288,
      "target": 34962
    },
    {
      "buffer": 0,
      "byteOffset": 130872,
      "byteLength": 72,
      "target": 34963
    },
    {
      "buffer": 0,
      "byteOffset": 130944,
      "byteLength": 96,
      "target": 34962
    },
    {
      "buffer": 0,
      "byteOffset": 131040,
      "byteLength": 96,
      "target": 34962
    },
    {
      "buffer": 0,
      "byteOffset": 131136,
      "byteLength": 64,
      "target": 34962
    },
    {
      "buffer": 0,
      "byteOffset": 131200,
      "byteLength": 24,
      "target": 34963
    },
    {
      "buffer": 0,
      "byteOffset": 131224,
      "byteLength": 192,
      "target": 34962
    },
    {
      "buffer": 0,
      "byteOffset": 131416,
      "byteLength": 192,
      "target": 34962
    },
    {
      "buffer": 0,
      "byteOffset": 131608,
      "byteLength": 128,
      "target": 34962
    },
    {
      "buffer": 0,
      "byteOffset": 131736,
      "byteLength": 48,
      "target": 34963
    },
    {
      "buffer": 0,
      "byteOffset": 131784,
      "byteLength": 3492,
      "target": 34962
    },
    {
      "buffer": 0,
      "byteOffset": 135276,
      "byteLength": 3492,
      "target": 34962
    },
    {
      "buffer": 0,
      "byteOffset": 138768,
      "byteLength": 2328,
      "target": 34962
    },
    {
      "buffer": 0,
      "byteOffset": 141096,
      "byteLength": 582,
      "target": 34963
    },
    {
      "buffer": 0,
      "byteOffset": 141680,
      "byteLength": 8244,
      "target": 34962
    },
    {
      "buffer": 0,
      "byteOffset": 149924,
      "byteLength": 8244,
      "target": 34962
    },
    {
      "buffer": 0,
      "byteOffset": 158168,
      "byteLength": 5496,
      "target": 34962
    },
    {
      "buffer": 0,
      "byteOffset": 163664,
      "byteLength": 1374,
      "target": 34963
    },
    {
      "buffer": 0,
      "byteOffset": 165040,
      "byteLength": 6120,
      "target": 34962
    },
    {
      "buffer": 0,
      "byteOffset": 171160,
      "byteLength": 6120,
      "target": 34962
    },
    {
      "buffer": 0,
      "byteOffset": 177280,
      "byteLength": 4080,
      "target": 34962
    },
    {
      "buffer": 0,
      "byteOffset": 181360,
      "byteLength": 1020,
      "target": 34963
    },
    {
      "buffer": 0,
      "byteOffset": 182380,
      "byteLength": 288,
      "target": 34962
    },
    {
      "buffer": 0,
      "byteOffset": 182668,
      "byteLength": 288,
      "target": 34962
    },
    {
      "buffer": 0,
      "byteOffset": 182956,
      "byteLength": 192,
      "target": 34962
    },
    {
      "buffer": 0,
      "byteOffset": 183148,
      "byteLength": 48,
      "target": 34963
    },
    {
      "buffer": 0,
      "byteOffset": 183196,
      "byteLength": 96,
      "target": 34962
    },
    {
      "buffer": 0,
      "byteOffset": 183292,
      "byteLength": 96,
      "target": 34962
    },
    {
      "buffer": 0,
      "byteOffset": 183388,
      "byteLength": 64,
      "target": 34962
    },
    {
      "buffer": 0,
      "byteOffset": 183452,
      "byteLength": 24,
      "target": 34963
    },
    {
      "buffer": 0,
      "byteOffset": 183476,
      "byteLength": 48,
      "target": 34962
    },
    {
      "buffer": 0,
      "byteOffset": 183524,
      "byteLength": 48,
      "target": 34962
    },
    {
      "buffer": 0,
      "byteOffset": 183572,
      "byteLength": 32,
      "target": 34962
    },
    {
      "buffer": 0,
      "byteOffset": 183604,
      "byteLength": 12,
      "target": 34963
    },
    {
      "buffer": 0,
      "byteOffset": 183616,
      "byteLength": 144,
      "target": 34962
    },
    {
      "buffer": 0,
      "byteOffset": 183760,
      "byteLength": 144,
      "target": 34962
    },
    {
      "buffer": 0,
      "byteOffset": 183904,
      "byteLength": 96,
      "target": 34962
    },
    {
      "buffer": 0,
      "byteOffset": 184000,
      "byteLength": 36,
      "target": 34963
    },
    {
      "buffer": 0,
      "byteOffset": 184036,
      "byteLength": 2232,
      "target": 34962
    },
    {
      "buffer": 0,
      "byteOffset": 186268,
      "byteLength": 2232,
      "target": 34962
    },
    {
      "buffer": 0,
      "byteOffset": 188500,
      "byteLength": 1488,
      "target": 34962
    },
    {
      "buffer": 0,
      "byteOffset": 189988,
      "byteLength": 372,
      "target": 34963
    },
    {
      "buffer": 0,
      "byteOffset": 190360,
      "byteLength": 2484,
      "target": 34962
    },
    {
      "buffer": 0,
      "byteOffset": 192844,
      "byteLength": 2484,
      "target": 34962
    },
    {
      "buffer": 0,
      "byteOffset": 195328,
      "byteLength": 1656,
      "target": 34962
    },
    {
      "buffer": 0,
      "byteOffset": 196984,
      "byteLength": 414,
      "target": 34963
    },
    {
      "buffer": 0,
      "byteOffset": 197400,
      "byteLength": 2628,
      "target": 34962
    },
    {
      "buffer": 0,
      "byteOffset": 200028,
      "byteLength": 2628,
      "target": 34962
    },
    {
      "buffer": 0,
      "byteOffset": 202656,
      "byteLength": 1752,
      "target": 34962
    },
    {
      "buffer": 0,
      "byteOffset": 204408,
      "byteLength": 438,
      "target": 34963
    },
    {
      "buffer": 0,
      "byteOffset": 204848,
      "byteLength": 2736,
      "target": 34962
    },
    {
      "buffer": 0,
      "byteOffset": 207584,
      "byteLength": 2736,
      "target": 34962
    },
    {
      "buffer": 0,
      "byteOffset": 210320,
      "byteLength": 1824,
      "target": 34962
    },
    {
      "buffer": 0,
      "byteOffset": 212144,
      "byteLength": 456,
      "target": 34963
    },
    {
      "buffer": 0,
      "byteOffset": 212600,
      "byteLength": 96,
      "target": 34962
    },
    {
      "buffer": 0,
      "byteOffset": 212696,
      "byteLength": 96,
      "target": 34962
    },
    {
      "buffer": 0,
      "byteOffset": 212792,
      "byteLength": 64,
      "target": 34962
    },
    {
      "buffer": 0,
      "byteOffset": 212856,
      "byteLength": 24,
      "target": 34963
    },
    {
      "buffer": 0,
      "byteOffset": 212880,
      "byteLength": 48,
      "target": 34962
    },
    {
      "buffer": 0,
      "byteOffset": 212928,
      "byteLength": 48,
      "target": 34962
    },
    {
      "buffer": 0,
      "byteOffset": 212976,
      "byteLength": 32,
      "target": 34962
    },
    {
      "buffer": 0,
      "byteOffset": 213008,
      "byteLength": 12,
      "target": 34963
    },
    {
      "buffer": 0,
      "byteOffset": 213020,
      "byteLength": 144,
      "target": 34962
    },
    {
      "buffer": 0,
      "byteOffset": 213164,
      "byteLength": 144,
      "target": 34962
    },
    {
      "buffer": 0,
      "byteOffset": 213308,
      "byteLength": 96,
      "target": 34962
    },
    {
      "buffer": 0,
      "byteOffset": 213404,
      "byteLength": 36,
      "target": 34963
    },
    {
      "buffer": 0,
      "byteOffset": 213440,
      "byteLength": 3492,
      "target": 34962
    },
    {
      "buffer": 0,
      "byteOffset": 216932,
      "byteLength": 3492,
      "target": 34962
    },
    {
      "buffer": 0,
      "byteOffset": 220424,
      "byteLength": 2328,
      "target": 34962
    },
    {
      "buffer": 0,
      "byteOffset": 222752,
      "byteLength": 582,
      "target": 34963
    },
    {
      "buffer": 0,
      "byteOffset": 223336,
      "byteLength": 3636,
      "target": 34962
    },
    {
      "buffer": 0,
      "byteOffset": 226972,
      "byteLength": 3636,
      "target": 34962
    },
    {
      "buffer": 0,
      "byteOffset": 230608,
      "byteLength": 2424,
      "target": 34962
    },
    {
      "buffer": 0,
      "byteOffset": 233032,
      "byteLength": 606,
      "target": 34963
    },
    {
      "buffer": 0,
      "byteOffset": 233640,
      "byteLength": 2628,
      "target": 34962
    },
    {
      "buffer": 0,
      "byteOffset": 236268,
      "byteLength": 2628,
      "target": 34962
    },
    {
      "buffer": 0,
      "byteOffset": 238896,
      "byteLength": 1752,
      "target": 34962
    },
    {
      "buffer": 0,
      "byteOffset": 240648,
      "byteLength": 438,
      "target": 34963
    },
    {
      "buffer": 0,
      "byteOffset": 241088,
      "byteLength": 3096,
      "target": 34962
    },
    {
      "buffer": 0,
      "byteOffset": 244184,
      "byteLength": 3096,
      "target": 34962
    },
    {
      "buffer": 0,
      "byteOffset": 247280,
      "byteLength": 2064,
      "target": 34962
    },
    {
      "buffer": 0,
      "byteOffset": 249344,
      "byteLength": 516,
      "target": 34963
    },
    {
      "buffer": 0,
      "byteOffset": 249860,
      "byteLength": 96,
      "target": 34962
    },
    {
      "buffer": 0,
      "byteOffset": 249956,
      "byteLength": 96,
      "target": 34962
    },
    {
      "buffer": 0,
      "byteOffset": 250052,
      "byteLength": 64,
      "target": 34962
    },
    {
      "buffer": 0,
      "byteOffset": 250116,
      "byteLength": 24,
      "target": 34963
    },
    {
      "buffer": 0,
      "byteOffset": 250140,
      "byteLength": 48,
      "target": 34962
    },
    {
      "buffer": 0,
      "byteOffset": 250188,
      "byteLength": 48,
      "target": 34962
    },
    {
      "buffer": 0,
      "byteOffset": 250236,
      "byteLength": 32,
      "target": 34962
    },
    {
      "buffer": 0,
      "byteOffset": 250268,
      "byteLength": 12,
      "target": 34963
    },
    {
      "buffer": 0,
      "byteOffset": 250280,
      "byteLength": 144,
      "target": 34962
    },
    {
      "buffer": 0,
      "byteOffset": 250424,
      "byteLength": 144,
      "target": 34962
    },
    {
      "buffer": 0,
      "byteOffset": 250568,
      "byteLength": 96,
      "target": 34962
    },
    {
      "buffer": 0,
      "byteOffset": 250664,
      "byteLength": 36,
      "target": 34963
    },
    {
      "buffer": 0,
      "byteOffset": 250700,
      "byteLength": 1908,
      "target": 34962
    },
    {
      "buffer": 0,
      "byteOffset": 252608,
      "byteLength": 1908,
      "target": 34962
    },
    {
      "buffer": 0,
      "byteOffset": 254516,
      "byteLength": 1272,
      "target": 34962
    },
    {
      "buffer": 0,
      "byteOffset": 255788,
      "byteLength": 318,
      "target": 34963
    },
    {
      "buffer": 0,
      "byteOffset": 256108,
      "byteLength": 8172,
      "target": 34962
    },
    {
      "buffer": 0,
      "byteOffset": 264280,
      "byteLength": 8172,
      "target": 34962
    },
    {
      "buffer": 0,
      "byteOffset": 272452,
      "byteLength": 5448,
      "target": 34962
    },
    {
      "buffer": 0,
      "byteOffset": 277900,
      "byteLength": 1362,
      "target": 34963
    },
    {
      "buffer": 0,
      "byteOffset": 279264,
      "byteLength": 3708,
      "target": 34962
    },
    {
      "buffer": 0,
      "byteOffset": 282972,
      "byteLength": 3708,
      "target": 34962
    },
    {
      "buffer": 0,
      "byteOffset": 286680,
      "byteLength": 2472,
      "target": 34962
    },
    {
      "buffer": 0,
      "byteOffset": 289152,
      "byteLength": 618,
      "target": 34963
    },
    {
      "buffer": 0,
      "byteOffset": 289772,
      "byteLength": 2664,
      "target": 34962
    },
    {
      "buffer": 0,
      "byteOffset": 292436,
      "byteLength": 2664,
      "target": 34962
    },
    {
      "buffer": 0,
      "byteOffset": 295100,
      "byteLength": 1776,
      "target": 34962
    },
    {
      "buffer": 0,
      "byteOffset": 296876,
      "byteLength": 444,
      "target": 34963
    },
    {
      "buffer": 0,
      "byteOffset": 297320,
      "byteLength": 96,
      "target": 34962
    },
    {
      "buffer": 0,
      "byteOffset": 297416,
      "byteLength": 96,
      "target": 34962
    },
    {
      "buffer": 0,
      "byteOffset": 297512,
      "byteLength": 64,
      "target": 34962
    },
    {
      "buffer": 0,
      "byteOffset": 297576,
      "byteLength": 24,
      "target": 34963
    },
    {
      "buffer": 0,
      "byteOffset": 297600,
      "byteLength": 48,
      "target": 34962
    },
    {
      "buffer": 0,
      "byteOffset": 297648,
      "byteLength": 48,
      "target": 34962
    },
    {
      "buffer": 0,
      "byteOffset": 297696,
      "byteLength": 32,
      "target": 34962
    },
    {
      "buffer": 0,
      "byteOffset": 297728,
      "byteLength": 12,
      "target": 34963
    },
    {
      "buffer": 0,
      "byteOffset": 297740,
      "byteLength": 144,
      "target": 34962
    },
    {
      "buffer": 0,
      "byteOffset": 297884,
      "byteLength": 144,
      "target": 34962
    },
    {
      "buffer": 0,
      "byteOffset": 298028,
      "byteLength": 96,
      "target": 34962
    },
    {
      "buffer": 0,
      "byteOffset": 298124,
      "byteLength": 36,
      "target": 34963
    },
    {
      "buffer": 0,
      "byteOffset": 298160,
      "byteLength": 2880,
      "target": 34962
    },
    {
      "buffer": 0,
      "byteOffset": 301040,
      "byteLength": 2880,
      "target": 34962
    },
    {
      "buffer": 0,
      "byteOffset": 303920,
      "byteLength": 1920,
      "target": 34962
    },
    {
      "buffer": 0,
      "byteOffset": 305840,
      "byteLength": 480,
      "target": 34963
    },
    {
      "buffer": 0,
      "byteOffset": 306320,
      "byteLength": 9324,
      "target": 34962
    },
    {
      "buffer": 0,
      "byteOffset": 315644,
      "byteLength": 9324,
      "target": 34962
    },
    {
      "buffer": 0,
      "byteOffset": 324968,
      "byteLength": 6216,
      "target": 34962
    },
    {
      "buffer": 0,
      "byteOffset": 331184,
      "byteLength": 1554,
      "target": 34963
    },
    {
      "buffer": 0,
      "byteOffset": 332740,
      "byteLength": 4356,
      "target": 34962
    },
    {
      "buffer": 0,
      "byteOffset": 337096,
      "byteLength": 4356,
      "target": 34962
    },
    {
      "buffer": 0,
      "byteOffset": 341452,
      "byteLength": 2904,
      "target": 34962
    },
    {
      "buffer": 0,
      "byteOffset": 344356,
      "byteLength": 726,
      "target": 34963
    },
    {
      "buffer": 0,
      "byteOffset": 345084,
      "byteLength": 3024,
      "target": 34962
    },
    {
      "buffer": 0,
      "byteOffset": 348108,
      "byteLength": 3024,
      "target": 34962
    },
    {
      "buffer": 0,
      "byteOffset": 351132,
      "byteLength": 2016,
      "target": 34962
    },
    {
      "buffer": 0,
      "byteOffset": 353148,
      "byteLength": 504,
      "target": 34963
    }
  ],
  "buffers": [
    {
      "uri": "SmallBarn_destructible.bin",
      "byteLength": 353652
    }
  ]
}
